<?xml version="1.0" encoding="UTF-8"?>
<svg version="1.1" xmlns="http://www.w3.org/2000/svg" width="1754" height="1241">
<path d="M0 0 C35.64 0 71.28 0 108 0 C120.27321669 14.50471063 120.27321669 14.50471063 124.375 19.8125 C128.31837155 24.88049988 132.32001182 29.89583765 136.375 34.875 C136.91737305 35.54104248 137.45974609 36.20708496 138.01855469 36.89331055 C139.67816195 38.92958886 141.33886709 40.96496613 143 43 C149.68097011 51.18477581 156.3336976 59.3840373 162.83642578 67.71142578 C166.87934101 72.87648012 171.01861851 77.96017134 175.16625977 83.04125977 C178.63893482 87.30310909 182.05826306 91.60131101 185.4375 95.9375 C190.1138728 101.93426041 194.93472498 107.8033436 199.78857422 113.65698242 C204.07946615 118.8445228 208.26996028 124.10080148 212.36132812 129.44726562 C215.03629119 132.90823679 217.85681236 135.97447179 221 139 C228.04643817 130.45335241 234.9455755 121.83851539 241.54345703 112.94018555 C245.4617858 107.67255403 249.52514408 102.53737348 253.64526367 97.42675781 C257.18422526 93.03324534 260.65110992 88.59379169 264.07958984 84.11328125 C267.61392004 79.49542362 271.17786881 74.90117113 274.75 70.3125 C275.33990723 69.55453125 275.92981445 68.7965625 276.53759766 68.015625 C278.9686253 64.89255299 281.40034787 61.77002238 283.83203125 58.64746094 C290.3685775 50.25282794 296.89394038 41.85073009 303.37109375 33.41015625 C305.3741353 30.80596741 307.39009556 28.21210176 309.41015625 25.62109375 C310.01408203 24.84636719 310.61800781 24.07164062 311.24023438 23.2734375 C312.40590976 21.77917409 313.5724897 20.2856156 314.74023438 18.79296875 C319.580586 12.58826071 324.27520211 6.29973052 329 0 C366.29 0 403.58 0 442 0 C442 129.36 442 258.72 442 392 C405.04 392 368.08 392 330 392 C329.505 281.615 329.505 281.615 329 169 C322.81551464 175.91619607 322.81551464 175.91619607 316.875 183 C316.12734375 183.92039062 315.3796875 184.84078125 314.609375 185.7890625 C314.20009766 186.2934082 313.79082031 186.79775391 313.36914062 187.31738281 C310.63314679 190.67980604 307.87914615 194.02744163 305.125 197.375 C304.52526367 198.10404541 303.92552734 198.83309082 303.30761719 199.58422852 C299.16852665 204.60603434 294.98023182 209.58303739 290.76220703 214.53857422 C287.45706789 218.43194724 284.26470718 222.40356635 281.09375 226.40625 C278.14916916 230.05401433 275.10548467 233.6145398 272.06640625 237.18359375 C269.32225467 240.41424312 266.63252191 243.67698054 264 247 C260.45144854 251.47931906 256.77063124 255.83340036 253.06640625 260.18359375 C250.32225467 263.41424312 247.63252191 266.67698054 245 270 C241.45831024 274.47065757 237.7873464 278.81885558 234.08618164 283.15722656 C230.46729711 287.41145875 226.98247947 291.75855037 223.55859375 296.171875 C222 298 222 298 220 299 C219.50113281 298.37996094 219.00226563 297.75992187 218.48828125 297.12109375 C213.42200549 290.8723838 208.22530975 284.75934698 202.94287109 278.69335938 C198.95360742 274.10970352 195.01096362 269.48992159 191.09423828 264.84423828 C187.74928761 260.87899977 184.38005078 256.93534871 181 253 C176.69362304 247.98523268 172.41185661 242.95066058 168.14892578 237.89892578 C164.74682364 233.87137434 161.3139698 229.87108182 157.875 225.875 C154.38180518 221.8137519 150.93551449 217.72481221 147.5625 213.5625 C142.40945352 207.21885795 137.02928033 201.07782438 131.6640625 194.9140625 C128.99663364 191.84589316 126.33912829 188.7693297 123.6875 185.6875 C123.23270264 185.1618042 122.77790527 184.6361084 122.30932617 184.09448242 C118.06836605 179.15925635 114.07435007 174.09293759 110 169 C109.67 242.59 109.34 316.18 109 392 C73.03 392 37.06 392 0 392 C0 262.64 0 133.28 0 0 Z " fill="#00AE8E" transform="translate(534,428)"/>
<path d="M0 0 C2.8828125 2.625 2.8828125 2.625 4.875 5 C4.875 9.0114465 4.67888653 9.81934363 2.70703125 13.02734375 C2.23281738 13.80827393 1.75860352 14.5892041 1.27001953 15.39379883 C0.48667236 16.65293091 0.48667236 16.65293091 -0.3125 17.9375 C-0.85277832 18.82139404 -1.39305664 19.70528809 -1.94970703 20.6159668 C-3.66525851 23.41665031 -5.39369996 26.20902915 -7.125 29 C-8.19157064 30.72646095 -9.25798081 32.45302106 -10.32421875 34.1796875 C-11.91687613 36.75585742 -13.51138578 39.33081634 -15.11035156 41.90307617 C-19.89316675 49.5991255 -24.60096886 57.33978305 -29.28076172 65.09887695 C-32.75364805 70.83349975 -36.35498801 76.45601487 -40.125 82 C-40.60501465 81.63205322 -41.0850293 81.26410645 -41.57958984 80.88500977 C-76.9759735 53.87145521 -117.45654943 38.08283444 -162.31933594 42.30029297 C-188.55767262 45.8948993 -213.04899655 58.32254711 -229.23193359 79.52807617 C-250.43529355 108.35980726 -257.77160805 142.2674382 -252.52734375 177.62939453 C-247.36486645 208.04666068 -230.95183785 238.35540743 -205.703125 256.61328125 C-180.6633697 273.82290219 -149.11336865 277.94759464 -119.62890625 273.09765625 C-90.91349802 267.77358463 -61.92977302 252.44961606 -41.62109375 231.5078125 C-39.59380232 229.4646415 -37.46607015 227.67219296 -35.125 226 C-34.465 226 -33.805 226 -33.125 226 C-31.4535917 228.21616359 -29.90483739 230.43799828 -28.375 232.75 C-27.37987317 234.22591282 -26.38373179 235.70114196 -25.38671875 237.17578125 C-24.85739746 237.96162598 -24.32807617 238.7474707 -23.78271484 239.55712891 C-20.96150233 243.71457404 -18.07384348 247.82512729 -15.1875 251.9375 C-14.59493408 252.7833667 -14.00236816 253.6292334 -13.3918457 254.50073242 C-10.1168062 259.17278864 -6.82841524 263.83512936 -3.5300293 268.49072266 C3.38364105 278.25106313 10.14769094 288.11046266 16.875 298 C4.73178815 323.39607345 -37.5330334 343.0143087 -62.92675781 352.23046875 C-120.00482038 372.21159416 -186.12311136 374.35379507 -241.7578125 348.12109375 C-243.21503606 347.41714767 -244.67078079 346.71013174 -246.125 346 C-246.8375293 345.65598145 -247.55005859 345.31196289 -248.28417969 344.95751953 C-274.63035173 332.09622253 -298.36674129 312.33006136 -316.125 289 C-316.56779297 288.42781738 -317.01058594 287.85563477 -317.46679688 287.26611328 C-352.16095866 242.04234478 -363.49625172 182.73184932 -356.52294922 126.8671875 C-350.28576511 81.92885 -331.29969728 43.64226506 -300.125 11 C-299.25230469 10.07445312 -298.37960937 9.14890625 -297.48046875 8.1953125 C-234.72676593 -56.67161896 -124.39188636 -68.93259576 0 0 Z " fill="#7F3F98" transform="translate(495.125,465)"/>
<path d="M0 0 C1.67176126 1.66155645 3.33919766 3.32748957 5 5 C-26.99791404 67.59738075 -26.99791404 67.59738075 -37 85 C-41.117641 83.58781265 -43.99354172 81.59342725 -47.375 78.875 C-71.19128953 60.55846345 -104.86063295 48.6723174 -135 51 C-145.7869509 52.51876713 -156.50363565 56.26335043 -163.5 64.9375 C-167.43136169 70.79012037 -168.85720765 77.0317314 -168 84 C-164.31287127 96.14583581 -154.15869319 102.1415857 -143.54296875 107.86328125 C-128.04195441 115.9282189 -111.80397497 122.53715579 -95.5625 128.9375 C-54.33375675 145.236714 -13.40949865 164.83093067 5.30859375 207.66796875 C16.57998187 235.23203301 15.09869312 270.81640865 3.7578125 298.12109375 C-1.29148795 309.57956969 -7.66080785 319.64027734 -16 329 C-16.69609375 329.82757812 -17.3921875 330.65515625 -18.109375 331.5078125 C-41.47904516 358.71556717 -75.01807788 371.37085814 -110 375 C-116.80767743 375.46271008 -123.61778043 375.4380154 -130.4375 375.375 C-131.77838684 375.36851944 -131.77838684 375.36851944 -133.1463623 375.36190796 C-146.30044646 375.2875057 -159.10693779 374.81075824 -172 372 C-172.85319824 371.82307617 -173.70639648 371.64615234 -174.58544922 371.46386719 C-180.77661748 370.16341864 -186.89783868 368.66785158 -193 367 C-193.74781738 366.79568359 -194.49563477 366.59136719 -195.26611328 366.38085938 C-220.77957684 359.16493029 -247.08209618 345.57249848 -267 328 C-268.40765625 326.85724609 -268.40765625 326.85724609 -269.84375 325.69140625 C-271.25140625 324.51384766 -271.25140625 324.51384766 -272.6875 323.3125 C-273.53699219 322.60738281 -274.38648438 321.90226562 -275.26171875 321.17578125 C-277 319 -277 319 -277.10546875 316.71875 C-275.50432975 312.78096644 -273.13878624 309.5964053 -270.625 306.1875 C-269.51731768 304.6530013 -268.41056598 303.11783045 -267.3046875 301.58203125 C-266.74620117 300.81068848 -266.18771484 300.0393457 -265.61230469 299.24462891 C-263.27392221 295.98916427 -261.00875472 292.68598296 -258.75 289.375 C-254.19930265 282.727149 -249.60497641 276.11035197 -245 269.5 C-238.63172829 260.35711062 -232.29703998 251.19207742 -226 242 C-222.70552028 243.39814505 -220.13745038 245.41760789 -217.38500977 247.6796875 C-210.0504737 253.70277718 -202.46666766 258.67569881 -194 263 C-193.15228027 263.43344727 -192.30456055 263.86689453 -191.43115234 264.31347656 C-165.85265003 277.24798394 -137.8402912 288.63909624 -109 280 C-101.73864106 277.20064433 -94.93211925 273.9950332 -91 267 C-88.15200268 260.33284919 -86.57628771 253.6327146 -88.73828125 246.59765625 C-95.36622429 230.95571067 -114.91241904 223.06710677 -129.63476562 216.89550781 C-132.96230021 215.59224505 -136.31191012 214.35806979 -139.67041016 213.13720703 C-172.67736239 201.04179562 -208.90878291 184.9287018 -235 161 C-235.68449219 160.39542969 -236.36898438 159.79085937 -237.07421875 159.16796875 C-254.76336668 142.6604142 -266.680975 117.6414309 -268.22119141 93.53857422 C-268.34020226 89.71047601 -268.3801909 85.89244264 -268.375 82.0625 C-268.37418427 81.04361694 -268.37418427 81.04361694 -268.37335205 80.00415039 C-268.30926134 62.52840858 -265.44604675 46.863317 -258 31 C-257.23042969 29.35644531 -257.23042969 29.35644531 -256.4453125 27.6796875 C-240.87031638 -3.24674021 -211.10657998 -23.71882238 -178.9140625 -34.37109375 C-121.30178784 -52.69131498 -45.2897212 -41.16687973 0 0 Z " fill="#7F3F98" transform="translate(1270,456)"/>
<path d="M0 0 C35.64 0 71.28 0 108 0 C120.27321669 14.50471063 120.27321669 14.50471063 124.375 19.8125 C128.31837155 24.88049988 132.32001182 29.89583765 136.375 34.875 C136.91737305 35.54104248 137.45974609 36.20708496 138.01855469 36.89331055 C139.67816195 38.92958886 141.33886709 40.96496613 143 43 C149.68097011 51.18477581 156.3336976 59.3840373 162.83642578 67.71142578 C166.87934101 72.87648012 171.01861851 77.96017134 175.16625977 83.04125977 C178.63893482 87.30310909 182.05826306 91.60131101 185.4375 95.9375 C190.11424467 101.93473728 194.9372907 107.80267526 199.78857422 113.65917969 C204.06200988 118.82974211 208.24607566 124.06214776 212.36132812 129.359375 C214.34088004 131.90495993 216.1536209 134.13136512 218.6146698 136.23587036 C222.88068408 141.41087538 221.6474272 148.92964901 221.56762695 155.27685547 C221.56621572 156.84422256 221.56700993 158.41159296 221.56983948 159.97895813 C221.57127213 164.22462617 221.54190726 168.46958572 221.50696969 172.71508932 C221.47568082 177.15532925 221.47277346 181.59558602 221.46684265 186.03591919 C221.45131162 194.4400848 221.41029325 202.84392461 221.3600952 211.24794686 C221.30417863 220.81738626 221.27670943 230.38684135 221.25161803 239.95640349 C221.1993767 259.63778406 221.11144885 279.31887149 221 299 C215.4985502 293.52023759 215.4985502 293.52023759 213.30859375 290.94140625 C212.84493408 290.39782471 212.38127441 289.85424316 211.90356445 289.29418945 C211.41976318 288.72273193 210.93596191 288.15127441 210.4375 287.5625 C209.37770779 286.31762011 208.31780886 285.07283106 207.2578125 283.828125 C206.71930664 283.19455078 206.18080078 282.56097656 205.62597656 281.90820312 C204.04556489 280.05347375 202.45801466 278.20517446 200.8671875 276.359375 C196.28403715 271.03956884 191.73308842 265.70666384 187.3125 260.25 C183.75732096 255.86848205 180.03230463 251.68289319 176.234375 247.51171875 C173.21309963 244.11542494 170.37424067 240.5840702 167.515625 237.05078125 C164.57075051 233.47943501 161.54283024 229.98785513 158.5 226.5 C154.76584832 222.21793708 151.07540896 217.91668165 147.5 213.5 C142.37269864 207.17289137 137.01016132 201.05585974 131.6640625 194.9140625 C128.99663364 191.84589316 126.33912829 188.7693297 123.6875 185.6875 C123.23270264 185.1618042 122.77790527 184.6361084 122.30932617 184.09448242 C118.06836605 179.15925635 114.07435007 174.09293759 110 169 C109.67 242.59 109.34 316.18 109 392 C73.03 392 37.06 392 0 392 C0 262.64 0 133.28 0 0 Z " fill="#7E3F98" transform="translate(534,428)"/>
<path d="M0 0 C74.25 0 148.5 0 225 0 C225 74.25 225 148.5 225 225 C217.19133069 218.30685488 217.19133069 218.30685488 214.5480957 213.83666992 C203.19122096 195.65960045 187.69499185 174.67875321 165.85115051 169.21194458 C146.85150945 165.60068827 127.20492059 166.00750882 107.9375 166.4375 C106.92882331 166.45935088 106.92882331 166.45935088 105.89976931 166.4816432 C88.24142734 166.87562445 70.61652103 167.72452654 53 169 C53.0427795 168.45010029 53.08555901 167.90020058 53.12963486 167.33363724 C54.47947311 149.65672401 55.32508594 131.97235677 55.75 114.25 C55.76663523 113.58248703 55.78327046 112.91497405 55.80040979 112.22723341 C57.29851543 67.760005 57.29851543 67.760005 36.89950562 29.88748169 C33.432197 26.30341771 29.75768579 23.0143325 25.9375 19.8125 C25.31654953 19.29202591 24.69559906 18.77155182 24.05583191 18.23530579 C17.013968 12.41383901 9.73130256 7.13420056 1.96739197 2.313797 C1.31815262 1.88024399 0.66891327 1.44669098 0 1 C0 0.67 0 0.34 0 0 Z " fill="#00AD8E" transform="translate(1249,294)"/>
<path d="M0 0 C3.80371024 1.90185512 5.73609128 3.48486209 8.69500732 6.44104004 C9.15169934 6.89461207 9.60839135 7.3481841 10.07892251 7.81550074 C11.60525484 9.33386698 13.12435195 10.85926837 14.64355469 12.38476562 C15.73731262 13.47581316 16.8314955 14.56643483 17.92607117 15.65666199 C20.89531267 18.61678523 23.85819242 21.58320063 26.81970501 24.551054 C29.91703426 27.65344356 33.01923647 30.75095416 36.1206665 33.84924316 C41.32607395 39.05101215 46.52725 44.25698413 51.72607422 49.46533203 C57.74357937 55.49373291 63.76827125 61.51487942 69.79672503 67.53233004 C74.96817163 72.69471398 80.13572713 77.86096862 85.30002332 83.03050566 C88.38645163 86.12005784 91.47422917 89.20822894 94.56551361 92.29292297 C97.46907365 95.19072462 100.36773363 98.09333867 103.2626133 100.99981117 C104.3283809 102.06823296 105.39587203 103.13493856 106.46516228 104.19983482 C107.91902261 105.64826859 109.36617951 107.10342184 110.81292725 108.55895996 C111.62628414 109.37307091 112.43964104 110.18718185 113.27764511 111.02596283 C115 113 115 113 115 115 C77.05 115 39.1 115 0 115 C0 77.05 0 39.1 0 0 Z " fill="#7E3F98" transform="translate(1302,348)"/>
<path d="M0 0 C15 0 15 0 20.0625 4.5 C21.41779559 6.30192709 22.7322922 8.13541311 24 10 C25.18410766 11.54427375 26.37121468 13.08625647 27.5625 14.625 C28.38016933 15.74624846 29.19489512 16.86969589 30 18 C32.78377562 15.36977784 35.20111219 12.82993032 37.3671875 9.66796875 C37.9859375 8.81235352 37.9859375 8.81235352 38.6171875 7.93945312 C39.45207468 6.77657455 40.25256657 5.58817772 41.015625 4.37695312 C42.3046875 2.66796875 42.3046875 2.66796875 46 0 C50.95 0 55.9 0 61 0 C61 17.16 61 34.32 61 52 C55.39 52 49.78 52 44 52 C43.505 39.13 43.505 39.13 43 26 C39.37 30.62 35.74 35.24 32 40 C27.5 38.875 27.5 38.875 25.203125 36.05859375 C24.76645508 35.53322021 24.32978516 35.00784668 23.87988281 34.46655273 C23.07309082 33.46217163 23.07309082 33.46217163 22.25 32.4375 C20.5175 30.313125 18.785 28.18875 17 26 C16.67 34.58 16.34 43.16 16 52 C10.72 52 5.44 52 0 52 C0 34.84 0 17.68 0 0 Z " fill="#7F3F98" transform="translate(483,893)"/>
<path d="M0 0 C3.96 0 7.92 0 12 0 C19.04011879 12.64472529 26.03542018 25.31351639 33 38 C33.39268066 37.23445801 33.78536133 36.46891602 34.18994141 35.68017578 C35.67454099 32.78994003 37.16221231 29.90131095 38.65185547 27.01367188 C39.29107557 25.77307813 39.92913337 24.53188469 40.56591797 23.29003906 C50.94491086 3.05508914 50.94491086 3.05508914 54 0 C57.96 0 61.92 0 66 0 C66 20.13 66 40.26 66 61 C62.37 61 58.74 61 55 61 C54.67 48.13 54.34 35.26 54 22 C49.56651612 30.65733816 49.56651612 30.65733816 45.14550781 39.32104492 C44.58702148 40.40490479 44.02853516 41.48876465 43.453125 42.60546875 C42.88754883 43.71043701 42.32197266 44.81540527 41.73925781 45.95385742 C40.03737254 48.93454559 38.33324179 51.48250938 36 54 C32.9375 54.5 32.9375 54.5 30 54 C26.81566009 51.53547744 25.28133363 48.08696352 23.42578125 44.58203125 C22.82419189 43.4525708 22.22260254 42.32311035 21.6027832 41.15942383 C20.46909302 39.00769653 20.46909302 39.00769653 19.3125 36.8125 C16.899375 32.254375 14.48625 27.69625 12 23 C11.67 35.54 11.34 48.08 11 61 C7.37 61 3.74 61 0 61 C0 40.87 0 20.74 0 0 Z " fill="#7F3F98" transform="translate(1551,295)"/>
<path d="M0 0 C6.4765662 4.45490909 9.20325721 10.49408041 11 18 C12.27645739 25.81665657 9.98782904 33.60756655 5.5625 40.11328125 C0.14551893 46.19436336 -6.69847094 48.55422188 -14.65625 49.37890625 C-24.44196088 49.68719592 -33.41502877 48.602284 -40.9375 41.875 C-46.56130827 35.52117815 -48.74693455 28.13966644 -48.37890625 19.734375 C-47.37610141 12.49763906 -44.57283927 6.37605393 -39.08984375 1.47265625 C-27.9135503 -6.40297483 -11.83465674 -6.55097968 0 0 Z M-29.875 15.125 C-31.45756719 19.16933838 -31.68659164 22.71446096 -31 27 C-29.39285226 30.15689734 -28.02561766 32.19415756 -25.25 34.375 C-20.37844503 35.72820971 -16.36052733 35.48773621 -11.6875 33.8125 C-8.55936298 31.70282619 -7.37654401 30.5178347 -6 27 C-5.43985307 22.72109985 -5.54579168 19.16075459 -7.125 15.125 C-10.41655629 11.39456954 -13.5973264 10.15028646 -18.5 9.625 C-23.4026736 10.15028646 -26.58344371 11.39456954 -29.875 15.125 Z " fill="#7F3F98" transform="translate(230,897)"/>
<path d="M0 0 C0.74886475 0.00523682 1.49772949 0.01047363 2.26928711 0.01586914 C3.07817383 0.0190918 3.88706055 0.02231445 4.72045898 0.02563477 C5.5705957 0.03401367 6.42073242 0.04239258 7.29663086 0.05102539 C8.15063477 0.05553711 9.00463867 0.06004883 9.88452148 0.06469727 C12.00108749 0.07652166 14.11761771 0.0944577 16.23413086 0.11352539 C18.56568645 5.30466647 20.89510129 10.49676118 23.22265625 15.68969727 C24.01245304 17.45101969 24.80280385 19.2120938 25.59375 20.97290039 C38.23413086 49.11593684 38.23413086 49.11593684 38.23413086 52.11352539 C32.62413086 52.11352539 27.01413086 52.11352539 21.23413086 52.11352539 C18.23413086 45.11352539 18.23413086 45.11352539 18.23413086 42.11352539 C10.97413086 42.11352539 3.71413086 42.11352539 -3.76586914 42.11352539 C-4.75586914 45.08352539 -5.74586914 48.05352539 -6.76586914 51.11352539 C-7.76586914 52.11352539 -7.76586914 52.11352539 -11.58227539 52.21118164 C-13.16433596 52.20450628 -14.74638073 52.19254415 -16.32836914 52.17602539 C-17.13467773 52.17151367 -17.94098633 52.16700195 -18.77172852 52.16235352 C-20.7698067 52.15053057 -22.76784697 52.13259453 -24.76586914 52.11352539 C-21.01376479 41.85466616 -16.66109113 31.90901763 -12.18041992 21.95239258 C-11.00005695 19.32837393 -9.82599069 16.70160031 -8.65258789 14.07446289 C-7.90425398 12.40502884 -7.15556949 10.73575189 -6.40649414 9.06665039 C-6.05548645 8.28138977 -5.70447876 7.49612915 -5.34283447 6.68707275 C-2.39662401 0.15407579 -2.39662401 0.15407579 0 0 Z M6.23413086 16.11352539 C3.26413086 24.03352539 3.26413086 24.03352539 0.23413086 32.11352539 C4.52413086 32.11352539 8.81413086 32.11352539 13.23413086 32.11352539 C11.63089056 26.46401197 10.08816864 21.27797471 7.23413086 16.11352539 C6.90413086 16.11352539 6.57413086 16.11352539 6.23413086 16.11352539 Z " fill="#7F3F98" transform="translate(1031.765869140625,892.886474609375)"/>
<path d="M0 0 C0.74886475 0.00523682 1.49772949 0.01047363 2.26928711 0.01586914 C3.07817383 0.0190918 3.88706055 0.02231445 4.72045898 0.02563477 C5.5705957 0.03401367 6.42073242 0.04239258 7.29663086 0.05102539 C8.15063477 0.05553711 9.00463867 0.06004883 9.88452148 0.06469727 C12.00108749 0.07652166 14.11761771 0.0944577 16.23413086 0.11352539 C18.72463816 5.64522223 21.21486241 11.17704637 23.70483398 16.70898438 C24.55046089 18.58759941 25.3961627 20.46618074 26.24194336 22.34472656 C27.46349873 25.05793357 28.68477717 27.77126508 29.90600586 30.48461914 C30.27908875 31.31311874 30.65217163 32.14161835 31.03656006 32.995224 C31.75212542 34.58535256 32.46595246 36.17626476 33.17785645 37.76803589 C33.90649352 39.38599671 34.64551226 40.99930847 35.39294434 42.6086731 C35.75980347 43.40699554 36.1266626 44.20531799 36.50463867 45.02783203 C36.83683411 45.74145401 37.16902954 46.45507599 37.5112915 47.19032288 C38.23413086 49.11352539 38.23413086 49.11352539 38.23413086 52.11352539 C32.62413086 52.11352539 27.01413086 52.11352539 21.23413086 52.11352539 C18.23413086 45.11352539 18.23413086 45.11352539 18.23413086 42.11352539 C10.97413086 42.11352539 3.71413086 42.11352539 -3.76586914 42.11352539 C-4.75586914 45.08352539 -5.74586914 48.05352539 -6.76586914 51.11352539 C-7.76586914 52.11352539 -7.76586914 52.11352539 -11.58227539 52.21118164 C-13.16433596 52.20450628 -14.74638073 52.19254415 -16.32836914 52.17602539 C-17.13467773 52.17151367 -17.94098633 52.16700195 -18.77172852 52.16235352 C-20.7698067 52.15053057 -22.76784697 52.13259453 -24.76586914 52.11352539 C-21.77426036 45.10991414 -18.77310788 38.11043957 -15.76586914 31.11352539 C-15.35712555 30.16237854 -15.35712555 30.16237854 -14.94012451 29.1920166 C-13.17907578 25.09518879 -11.41478804 20.99977486 -9.64706421 16.90582275 C-9.05884383 15.54253672 -8.47146377 14.17888782 -7.88491821 12.81488037 C-7.05583797 10.88739839 -6.22373165 8.96125049 -5.39086914 7.03540039 C-4.90875977 5.91746094 -4.42665039 4.79952148 -3.92993164 3.64770508 C-2.32297599 0.14934105 -2.32297599 0.14934105 0 0 Z M6.23413086 17.11352539 C5.39427002 19.04820481 4.56245059 20.98637668 3.73413086 22.92602539 C3.27006836 24.0049707 2.80600586 25.08391602 2.32788086 26.19555664 C1.05863783 29.06234564 1.05863783 29.06234564 1.23413086 32.11352539 C5.19413086 32.11352539 9.15413086 32.11352539 13.23413086 32.11352539 C11.04333146 24.50583087 11.04333146 24.50583087 8.23413086 17.11352539 C7.57413086 17.11352539 6.91413086 17.11352539 6.23413086 17.11352539 Z " fill="#7F3F98" transform="translate(616.765869140625,892.886474609375)"/>
<path d="M0 0 C0.79075928 0.00523682 1.58151855 0.01047363 2.39624023 0.01586914 C3.67724609 0.02070312 3.67724609 0.02070312 4.98413086 0.02563477 C5.88196289 0.03401367 6.77979492 0.04239258 7.70483398 0.05102539 C8.6065332 0.05553711 9.50823242 0.06004883 10.43725586 0.06469727 C12.67234712 0.07652315 14.90730835 0.09300319 17.14233398 0.11352539 C19.796499 6.08948342 22.44706988 12.06702617 25.09521484 18.0456543 C25.99544036 20.07694067 26.89647088 22.1078705 27.79833984 24.13842773 C29.0987478 27.06667933 30.39620114 29.99622499 31.69311523 32.92602539 C32.29329216 34.27494873 32.29329216 34.27494873 32.90559387 35.65112305 C35.15962553 40.75181047 37.23798327 45.87189992 39.14233398 51.11352539 C33.53233398 51.11352539 27.92233398 51.11352539 22.14233398 51.11352539 C18.14233398 43.36352539 18.14233398 43.36352539 18.14233398 41.11352539 C7.74733398 41.60852539 7.74733398 41.60852539 -2.85766602 42.11352539 C-4.17766602 45.08352539 -5.49766602 48.05352539 -6.85766602 51.11352539 C-12.46766602 51.11352539 -18.07766602 51.11352539 -23.85766602 51.11352539 C-21.80193658 44.65845387 -19.40375106 38.49288763 -16.66235352 32.30102539 C-16.26944122 31.40609375 -15.87652893 30.51116211 -15.47171021 29.58911133 C-14.64833052 27.71603872 -13.82301904 25.84381421 -12.99584961 23.97241211 C-11.72483432 21.09580039 -10.46073637 18.21622094 -9.19750977 15.33618164 C-8.39452677 13.51178572 -7.59115548 11.68756064 -6.78735352 9.86352539 C-6.40819794 9.00009521 -6.02904236 8.13666504 -5.63839722 7.24707031 C-5.28778229 6.45534424 -4.93716736 5.66361816 -4.57592773 4.84790039 C-4.26742889 4.14890625 -3.95893005 3.44991211 -3.64108276 2.72973633 C-2.38867135 0.1459761 -2.38867135 0.1459761 0 0 Z M7.14233398 15.11352539 C6.13792059 17.40334879 5.13865787 19.69518529 4.14233398 21.98852539 C3.85616211 22.63950195 3.56999023 23.29047852 3.27514648 23.96118164 C1.68307633 27.40990878 1.68307633 27.40990878 1.14233398 31.11352539 C5.43233398 31.11352539 9.72233398 31.11352539 14.14233398 31.11352539 C12.16233398 25.83352539 10.18233398 20.55352539 8.14233398 15.11352539 C7.81233398 15.11352539 7.48233398 15.11352539 7.14233398 15.11352539 Z " fill="#7F3F98" transform="translate(346.857666015625,893.886474609375)"/>
<path d="M0 0 C12.87 0 25.74 0 39 0 C39 3.63 39 7.26 39 11 C31.74 11 24.48 11 17 11 C17 13.97 17 16.94 17 20 C23.93 20 30.86 20 38 20 C38 23.63 38 27.26 38 31 C31.07 31 24.14 31 17 31 C17 34.3 17 37.6 17 41 C24.59 41 32.18 41 40 41 C40 44.63 40 48.26 40 52 C26.8 52 13.6 52 0 52 C0 34.84 0 17.68 0 0 Z " fill="#7F3F98" transform="translate(885,893)"/>
<path d="M0 0 C0.82798096 0.00580078 1.65596191 0.01160156 2.5090332 0.01757812 C8.96688544 0.15386499 14.56312409 1.24478229 20.6875 3.375 C20.6875 8.325 20.6875 13.275 20.6875 18.375 C14.6875 16.375 14.6875 16.375 12.8125 15.3125 C6.76554483 12.64472566 1.68156292 13.15524876 -4.328125 15.4140625 C-7.67521297 17.03489644 -9.66618724 19.08237449 -11.3125 22.375 C-11.83749368 26.12495483 -12.11822852 29.78694587 -10.37109375 33.23046875 C-7.80437303 36.48915806 -5.33004406 38.44068743 -1.3125 39.375 C5.79813176 40.1105826 11.14068977 38.0085311 17.6875 35.375 C18.6775 35.045 19.6675 34.715 20.6875 34.375 C20.82239391 36.64421536 20.91943995 38.9157067 21 41.1875 C21.05800781 42.45207031 21.11601563 43.71664062 21.17578125 45.01953125 C20.6875 48.375 20.6875 48.375 18.45703125 50.25 C8.28944688 54.380133 -3.18318755 54.71906866 -13.6640625 51.55078125 C-19.59387694 48.91822351 -23.94367362 44.59934287 -27.3125 39.125 C-30.48268425 30.40699332 -30.59333155 21.15291277 -26.703125 12.6328125 C-20.63266926 2.77684785 -10.99519661 -0.18717125 0 0 Z " fill="#7F3F98" transform="translate(958.3125,892.625)"/>
<path d="M0 0 C4.764375 -0.061875 9.52875 -0.12375 14.4375 -0.1875 C15.9217749 -0.21481201 17.4060498 -0.24212402 18.93530273 -0.27026367 C35.1760368 -0.372035 35.1760368 -0.372035 40.60717773 4.41723633 C44.80934586 9.19246086 45.35237774 13.38799873 45.28125 19.49609375 C44.73007103 24.40311766 41.98968624 27.08454022 38.5 30.3125 C33.95727786 33.37883744 29.59245228 33.1276378 24.25 33.0625 C21.8575 33.041875 19.465 33.02125 17 33 C17 39.27 17 45.54 17 52 C11.39 52 5.78 52 0 52 C0 34.84 0 17.68 0 0 Z M16 11 C16 14.63 16 18.26 16 22 C21.02600339 22.33429962 21.02600339 22.33429962 26 22 C28.46307432 19.97968262 28.46307432 19.97968262 29 17 C28.52269471 14.2225097 28.52269471 14.2225097 27 12 C24.24921116 11.08307039 22.64051087 10.89113917 19.8125 10.9375 C18.554375 10.958125 17.29625 10.97875 16 11 Z " fill="#7F3F98" transform="translate(834,893)"/>
<path d="M0 0 C0 4.95 0 9.9 0 15 C-6 13 -6 13 -8.53515625 11.89453125 C-13.99655672 9.9125016 -20.01489293 10.31423574 -25.4375 12.1875 C-28.84020347 14.59429026 -31.57166229 16.62729785 -32.34765625 20.92578125 C-32.54205095 25.41376323 -31.87303022 28.40871222 -29 32 C-24.74251325 35.72530091 -20.9581633 36.27514815 -15.48046875 36.23046875 C-12.11641831 35.91790343 -9.19163168 34.94110703 -6.04296875 33.75390625 C-4 33 -4 33 0 32 C0 36.62 0 41.24 0 46 C-11.43405165 50.06544059 -22.88675364 52.33860868 -34.68359375 48.16015625 C-41.88068867 44.55554041 -46.85783517 39.28585536 -49.4140625 31.640625 C-51.15274629 23.80495671 -50.50196475 16.24495541 -47 9 C-43.16806057 3.13938675 -37.78082142 -0.32933933 -31.22265625 -2.62109375 C-20.68819896 -4.41695027 -10.11679013 -3.07345523 0 0 Z " fill="#7F3F98" transform="translate(705,896)"/>
<path d="M0 0 C1 1 1 1 1.09765625 4.16015625 C1.08605469 5.44792969 1.07445312 6.73570312 1.0625 8.0625 C1.05347656 9.35285156 1.04445313 10.64320313 1.03515625 11.97265625 C1.02355469 12.97167969 1.01195312 13.97070312 1 15 C-4.71875 13.140625 -4.71875 13.140625 -7.25 11.875 C-13.01610304 10.04033085 -18.88172409 10.16487783 -24.4375 12.625 C-28.14213638 14.76978948 -29.7884831 16.80007474 -31 21 C-31.18439882 25.26631806 -30.475827 28.21828421 -28.25 31.875 C-23.83464746 36.04505517 -19.59377598 36.42419454 -13.70703125 36.3359375 C-9.83258438 35.85512591 -6.56536852 34.48548439 -3.03125 32.875 C-1 32 -1 32 1 32 C1 36.62 1 41.24 1 46 C-9.09476942 50.55254307 -21.15198912 52.0288038 -32 48.9375 C-38.86860774 46.12701806 -44.36221786 40.97448414 -47.31640625 34.16015625 C-49.67040012 26.72153563 -49.36373881 19.39953019 -47 12 C-43.74525427 5.73160082 -38.64204481 0.79950963 -32.0625 -1.875 C-21.84966304 -4.80791728 -9.81114955 -3.80996351 0 0 Z " fill="#7F3F98" transform="translate(293,896)"/>
<path d="M0 0 C6.6825 -0.061875 6.6825 -0.061875 13.5 -0.125 C15.58344727 -0.15231201 15.58344727 -0.15231201 17.70898438 -0.18017578 C34.69264765 -0.25612696 34.69264765 -0.25612696 41 5 C44.67004484 10.21026038 45.70971151 14.71398375 45 21 C43.14143173 26.26594344 40.39685804 28.79395768 36 32 C33.29283758 32.90238747 31.76223232 33.11851302 28.98828125 33.09765625 C27.96408081 33.09390991 27.96408081 33.09390991 26.91918945 33.09008789 C25.62887817 33.07643188 25.62887817 33.07643188 24.3125 33.0625 C21.569375 33.041875 18.82625 33.02125 16 33 C16 39.27 16 45.54 16 52 C10.72 52 5.44 52 0 52 C0 34.84 0 17.68 0 0 Z M16 11 C16 14.63 16 18.26 16 22 C18.413125 22.061875 18.413125 22.061875 20.875 22.125 C21.77992188 22.14820313 22.68484375 22.17140625 23.6171875 22.1953125 C26.18806994 22.24324836 26.18806994 22.24324836 28 20 C28.58345476 17.04253508 28.58345476 17.04253508 28 14 C25.02723853 11.29748957 23.21225709 11.01043887 19.1875 10.8125 C17.6096875 10.9053125 17.6096875 10.9053125 16 11 Z " fill="#7F3F98" transform="translate(554,893)"/>
<path d="M0 0 C1 1 1 1 1.09765625 3.94140625 C1.08605469 5.13636719 1.07445312 6.33132813 1.0625 7.5625 C1.05347656 8.76003906 1.04445312 9.95757813 1.03515625 11.19140625 C1.02355469 12.11824219 1.01195312 13.04507813 1 14 C0.2678125 13.70480469 -0.464375 13.40960937 -1.21875 13.10546875 C-9.39957271 9.4029731 -9.39957271 9.4029731 -18 10 C-18.0569532 11.89401268 -18.0569532 11.89401268 -17 14 C-13.96848182 15.82630485 -10.92124428 17.32661395 -7.72265625 18.82421875 C-2.8995952 21.20258481 0.01729679 23.46629113 3 28 C4.15249543 33.49761798 3.71070989 38.49961246 1.3125 43.5625 C-2.98462571 48.09190278 -6.96427342 49.80118667 -13.1015625 50.203125 C-20.54221829 50.30211377 -27.08100964 49.90929224 -34 47 C-35 46 -35 46 -35.09765625 43.05859375 C-35.08605469 41.86363281 -35.07445312 40.66867187 -35.0625 39.4375 C-35.05347656 38.23996094 -35.04445312 37.04242187 -35.03515625 35.80859375 C-35.02355469 34.88175781 -35.01195312 33.95492187 -35 33 C-31.87594795 33.54817268 -29.59552934 34.19078805 -26.6875 35.5625 C-22.36276082 37.24841527 -19.58530543 37.24133186 -15 37 C-14.67 35.68 -14.34 34.36 -14 33 C-15.53720703 32.23816406 -15.53720703 32.23816406 -17.10546875 31.4609375 C-18.46650961 30.76633734 -19.82716655 30.07098456 -21.1875 29.375 C-21.86103516 29.04371094 -22.53457031 28.71242188 -23.22851562 28.37109375 C-28.55369167 25.61758809 -32.25838727 22.48322546 -35 17 C-35.5341019 12.1317925 -35.50387512 8.13371903 -33.5 3.625 C-24.7845869 -5.52618376 -11.00927901 -5.27243387 0 0 Z " fill="#7F3F98" transform="translate(174,896)"/>
<path d="M0 0 C0 4.62 0 9.24 0 14 C-1.629375 13.175 -3.25875 12.35 -4.9375 11.5 C-10.33012541 9.02023054 -14.12680333 8.51859044 -20 9 C-19.53855942 12.0255236 -19.53855942 12.0255236 -17.49707031 14.18505859 C-16.86381836 14.50297363 -16.23056641 14.82088867 -15.578125 15.1484375 C-14.88203125 15.51453125 -14.1859375 15.880625 -13.46875 16.2578125 C-12.7365625 16.62648438 -12.004375 16.99515625 -11.25 17.375 C-5.60868905 20.21594796 -1.53415061 22.65434085 2 28 C3.17887346 33.21340315 2.62708075 37.74583849 0.25 42.5 C-3.93393267 47.14881408 -7.7007085 49.27239196 -14 50 C-21.84656204 50.00990728 -28.70355789 48.84437574 -36 46 C-36 41.38 -36 36.76 -36 32 C-34.35 32.66 -32.7 33.32 -31 34 C-25.47801155 36.12684361 -20.93873317 37.37906807 -15 37 C-14.92895861 34.61902386 -14.92895861 34.61902386 -16 32 C-18.45336083 30.43742519 -20.69413077 29.20508668 -23.3125 28 C-29.08078117 25.29971994 -33.03018269 22.93963462 -36 17 C-36.4015206 12.20491745 -36.58509726 7.61762183 -34.9375 3.0625 C-25.70203806 -6.76879819 -11.37757024 -5.03238684 0 0 Z " fill="#7F3F98" transform="translate(1282,896)"/>
<path d="M0 0 C3.0625 1.5625 3.0625 1.5625 4.0625 2.5625 C4.13508946 4.74889453 4.14623783 6.93750389 4.125 9.125 C4.11597656 10.32253906 4.10695313 11.52007813 4.09765625 12.75390625 C4.08605469 13.68074219 4.07445312 14.60757813 4.0625 15.5625 C3.2890625 15.2015625 2.515625 14.840625 1.71875 14.46875 C-4.47883746 11.70744866 -9.14282705 9.90916606 -15.9375 10.5625 C-14.9984111 14.48217539 -14.10013945 15.4619454 -10.6015625 17.625 C-9.26280686 18.28644053 -7.91604298 18.93187202 -6.5625 19.5625 C-0.82642931 22.26570573 3.10698734 24.65147468 6.0625 30.5625 C6.47843526 35.08179654 6.62098834 39.21037033 4.875 43.4375 C0.57033392 48.48434989 -3.66382841 51.09781742 -10.30859375 51.8203125 C-18.14109158 52.16135014 -24.56189767 50.10034166 -31.9375 47.5625 C-31.9375 42.9425 -31.9375 38.3225 -31.9375 33.5625 C-29.9575 34.3875 -27.9775 35.2125 -25.9375 36.0625 C-20.57722846 38.14216819 -16.63386895 39.12096754 -10.9375 38.5625 C-10.90942051 36.16061909 -10.90942051 36.16061909 -11.9375 33.5625 C-14.21969284 32.17944335 -16.2503349 31.13884095 -18.6875 30.125 C-24.82875344 27.54490908 -28.8507848 24.73593041 -31.9375 18.5625 C-32.35343526 14.04320346 -32.49598834 9.91462967 -30.75 5.6875 C-23.42428884 -2.9012648 -10.38053486 -3.88322928 0 0 Z " fill="#7F3F98" transform="translate(819.9375,894.4375)"/>
<path d="M0 0 C0 4.62 0 9.24 0 14 C-1.670625 13.175 -3.34125 12.35 -5.0625 11.5 C-9.73237989 9.35813002 -12.91936365 8.43548485 -18 9 C-18.33 10.32 -18.66 11.64 -19 13 C-17.98679687 13.50789062 -16.97359375 14.01578125 -15.9296875 14.5390625 C-14.57781609 15.2337742 -13.22627083 15.92912083 -11.875 16.625 C-11.20984375 16.95628906 -10.5446875 17.28757812 -9.859375 17.62890625 C-4.51573854 20.40550167 0.7158605 23.61454131 2.9453125 29.4921875 C3.40018588 35.52420403 2.90689243 40.18038626 -1 45 C-6.82943101 49.75450047 -13.69261429 50.70332097 -21 50 C-31.15286624 47.92356688 -31.15286624 47.92356688 -35 46 C-35 41.38 -35 36.76 -35 32 C-32.999375 32.845625 -30.99875 33.69125 -28.9375 34.5625 C-23.68150759 36.60522194 -20.39991405 37.63253216 -15 36 C-15.02249637 34.09428272 -15.02249637 34.09428272 -16 32 C-18.82107856 30.14733223 -18.82107856 30.14733223 -22.25 28.5625 C-27.68894586 25.91070626 -31.73120776 23.13309405 -35.3125 18.1875 C-36.81011963 13.42234664 -36.48905251 9.33845951 -34.8125 4.75 C-31.96871249 0.43528791 -29.06955047 -1.90650569 -24.125 -3.375 C-16.34519499 -4.87061176 -7.00772389 -3.50386195 0 0 Z " fill="#7F3F98" transform="translate(1181,896)"/>
<path d="M0 0 C17.49 0 34.98 0 53 0 C53 4.62 53 9.24 53 14 C47.06 14 41.12 14 35 14 C35 26.54 35 39.08 35 52 C29.39 52 23.78 52 18 52 C18 39.46 18 26.92 18 14 C12.06 14 6.12 14 0 14 C0 9.38 0 4.76 0 0 Z " fill="#7F3F98" transform="translate(1188,893)"/>
<path d="M0 0 C17.49 0 34.98 0 53 0 C53 4.62 53 9.24 53 14 C47.06 14 41.12 14 35 14 C35 26.54 35 39.08 35 52 C29.72 52 24.44 52 19 52 C19 39.46 19 26.92 19 14 C12.73 14 6.46 14 0 14 C0 9.38 0 4.76 0 0 Z " fill="#7F3F98" transform="translate(709,893)"/>
<path d="M0 0 C5.61 0 11.22 0 17 0 C17 12.87 17 25.74 17 39 C24.59 39 32.18 39 40 39 C40 43.29 40 47.58 40 52 C26.8 52 13.6 52 0 52 C0 34.84 0 17.68 0 0 Z " fill="#7F3F98" transform="translate(1074,893)"/>
<path d="M0 0 C5.28 0 10.56 0 16 0 C16 12.54 16 25.08 16 38 C23.92 38 31.84 38 40 38 C40 42.29 40 46.58 40 51 C26.8 51 13.6 51 0 51 C0 34.17 0 17.34 0 0 Z " fill="#7F3F98" transform="translate(390,894)"/>
<path d="M0 0 C15.84 0 31.68 0 48 0 C48 3.3 48 6.6 48 10 C42.06 10 36.12 10 30 10 C30 26.83 30 43.66 30 61 C26.04 61 22.08 61 18 61 C18 44.17 18 27.34 18 10 C12.06 10 6.12 10 0 10 C0 6.7 0 3.4 0 0 Z " fill="#7F3F98" transform="translate(1496,295)"/>
<path d="M0 0 C5.61 0 11.22 0 17 0 C17 17.16 17 34.32 17 52 C11.39 52 5.78 52 0 52 C0 34.84 0 17.68 0 0 Z " fill="#7F3F98" transform="translate(1120,893)"/>
<path d="M0 0 C5.28 0 10.56 0 16 0 C17.1322437 17.0038741 17.09851132 33.96848739 17 51 C11.39 51 5.78 51 0 51 C0 34.17 0 17.34 0 0 Z " fill="#7F3F98" transform="translate(302,894)"/>
<path d="M0 0 C5.28 0 10.56 0 16 0 C16 17.16 16 34.32 16 52 C10.72 52 5.44 52 0 52 C0 34.84 0 17.68 0 0 Z " fill="#7F3F98" transform="translate(987,893)"/>
<path d="M0 0 C5.28 0 10.56 0 16 0 C16 16.83 16 33.66 16 51 C10.72 51 5.44 51 0 51 C0 34.17 0 17.34 0 0 Z " fill="#7F3F98" transform="translate(457,894)"/>
</svg>
