<?xml version="1.0" encoding="UTF-8"?>
<svg version="1.1" xmlns="http://www.w3.org/2000/svg" width="299" height="123">
<path d="M0 0 C0.76121658 -0.00807175 1.52243317 -0.01614349 2.30671692 -0.02445984 C3.92328604 -0.0383196 5.53988467 -0.04903326 7.15649414 -0.05688477 C9.61727486 -0.07402886 12.07668787 -0.11788652 14.53710938 -0.16210938 C16.10806304 -0.17224223 17.67902813 -0.18075648 19.25 -0.1875 C20.34721626 -0.21376213 20.34721626 -0.21376213 21.46659851 -0.24055481 C26.59623701 -0.21902522 29.5530696 0.92946534 33.45703125 4.23828125 C35.0684619 9.07257319 35.12949725 13.53941977 33.26953125 18.23828125 C32.36121986 21.59204637 32.64627218 22.32820353 33.90625 25.42578125 C34.19201904 26.14121094 34.47778809 26.85664062 34.7722168 27.59375 C34.99820557 28.13644531 35.22419434 28.67914063 35.45703125 29.23828125 C35.60325928 28.46637451 35.7494873 27.69446777 35.90014648 26.89916992 C36.56281057 23.40763201 37.22863275 19.91670368 37.89453125 16.42578125 C38.12462891 15.21083984 38.35472656 13.99589844 38.59179688 12.74414062 C38.81416016 11.58076172 39.03652344 10.41738281 39.265625 9.21875 C39.46986084 8.14520264 39.67409668 7.07165527 39.88452148 5.96557617 C40.45703125 3.23828125 40.45703125 3.23828125 41.45703125 0.23828125 C44.75703125 0.23828125 48.05703125 0.23828125 51.45703125 0.23828125 C53.41442063 4.15306001 53.89257922 6.964573 54.45703125 11.23828125 C54.95203125 11.73328125 54.95203125 11.73328125 55.45703125 12.23828125 C55.78703125 8.60828125 56.11703125 4.97828125 56.45703125 1.23828125 C56.78703125 1.23828125 57.11703125 1.23828125 57.45703125 1.23828125 C57.45703125 9.81828125 57.45703125 18.39828125 57.45703125 27.23828125 C57.78703125 18.32828125 58.11703125 9.41828125 58.45703125 0.23828125 C61.42703125 0.23828125 64.39703125 0.23828125 67.45703125 0.23828125 C68.44703125 2.54828125 69.43703125 4.85828125 70.45703125 7.23828125 C70.78703125 5.25828125 71.11703125 3.27828125 71.45703125 1.23828125 C71.78703125 1.23828125 72.11703125 1.23828125 72.45703125 1.23828125 C72.45703125 5.52828125 72.45703125 9.81828125 72.45703125 14.23828125 C72.78703125 9.61828125 73.11703125 4.99828125 73.45703125 0.23828125 C75.76703125 0.23828125 78.07703125 0.23828125 80.45703125 0.23828125 C80.78703125 8.81828125 81.11703125 17.39828125 81.45703125 26.23828125 C83.76703125 26.23828125 86.07703125 26.23828125 88.45703125 26.23828125 C88.45703125 28.21828125 88.45703125 30.19828125 88.45703125 32.23828125 C89.44703125 32.23828125 90.43703125 32.23828125 91.45703125 32.23828125 C91.45703125 31.45453125 91.45703125 30.67078125 91.45703125 29.86328125 C91.45703125 28.32161458 91.45703125 26.77994792 91.45703125 25.23828125 C89.66979184 23.65372259 89.66979184 23.65372259 87.45703125 22.11328125 C86.71453125 21.57445313 85.97203125 21.035625 85.20703125 20.48046875 C84.62953125 20.07054688 84.05203125 19.660625 83.45703125 19.23828125 C83.12703125 21.21828125 82.79703125 23.19828125 82.45703125 25.23828125 C82.12703125 25.23828125 81.79703125 25.23828125 81.45703125 25.23828125 C81.45703125 17.31828125 81.45703125 9.39828125 81.45703125 1.23828125 C82.44703125 1.73328125 82.44703125 1.73328125 83.45703125 2.23828125 C83.99328125 1.92890625 84.52953125 1.61953125 85.08203125 1.30078125 C88.49869381 -0.22772568 91.80392219 -0.26085642 95.45703125 0.23828125 C98.45703125 1.73828125 98.45703125 1.73828125 100.45703125 3.23828125 C101.11703125 2.24828125 101.77703125 1.25828125 102.45703125 0.23828125 C104.33642578 -0.10229492 104.33642578 -0.10229492 106.58984375 -0.0546875 C107.39550781 -0.04501953 108.20117188 -0.03535156 109.03125 -0.02539062 C110.29388672 0.01231445 110.29388672 0.01231445 111.58203125 0.05078125 C112.43152344 0.06431641 113.28101563 0.07785156 114.15625 0.09179688 C116.25677962 0.12719906 118.35698418 0.18100724 120.45703125 0.23828125 C120.78703125 1.22828125 121.11703125 2.21828125 121.45703125 3.23828125 C122.11703125 2.74328125 122.77703125 2.24828125 123.45703125 1.73828125 C127.27641519 -0.17141072 130.25997487 -0.40611529 134.45703125 0.23828125 C139.02647569 2.37717014 139.02647569 2.37717014 140.45703125 5.23828125 C141.11703125 3.58828125 141.77703125 1.93828125 142.45703125 0.23828125 C144.51886758 0.15677381 146.58164474 0.09886185 148.64453125 0.05078125 C149.79308594 0.01597656 150.94164062 -0.01882812 152.125 -0.0546875 C156.72775507 0.3500096 159.24020534 2.02145534 162.45703125 5.23828125 C162.7578125 7.91796875 162.7578125 7.91796875 162.76953125 11.11328125 C162.78628906 12.16257812 162.80304688 13.211875 162.8203125 14.29296875 C162.421634 17.52526539 161.62671234 18.86823383 159.45703125 21.23828125 C160.11703125 21.23828125 160.77703125 21.23828125 161.45703125 21.23828125 C161.78703125 21.89828125 162.11703125 22.55828125 162.45703125 23.23828125 C162.78703125 15.64828125 163.11703125 8.05828125 163.45703125 0.23828125 C166.75703125 0.23828125 170.05703125 0.23828125 173.45703125 0.23828125 C174.79036458 4.23828125 176.12369792 8.23828125 177.45703125 12.23828125 C177.78703125 12.23828125 178.11703125 12.23828125 178.45703125 12.23828125 C178.45703125 14.54828125 178.45703125 16.85828125 178.45703125 19.23828125 C178.76447266 17.30662109 178.76447266 17.30662109 179.078125 15.3359375 C179.35004777 13.65751762 179.62219476 11.97913405 179.89453125 10.30078125 C180.0965918 9.02557617 180.0965918 9.02557617 180.30273438 7.72460938 C180.43486328 6.91572266 180.56699219 6.10683594 180.703125 5.2734375 C180.88379517 4.15014038 180.88379517 4.15014038 181.06811523 3.00415039 C181.45703125 1.23828125 181.45703125 1.23828125 182.45703125 0.23828125 C185.75703125 0.23828125 189.05703125 0.23828125 192.45703125 0.23828125 C192.45703125 13.10828125 192.45703125 25.97828125 192.45703125 39.23828125 C190.14703125 39.23828125 187.83703125 39.23828125 185.45703125 39.23828125 C184.79703125 38.24828125 184.13703125 37.25828125 183.45703125 36.23828125 C182.79703125 37.22828125 182.13703125 38.21828125 181.45703125 39.23828125 C177.83203125 39.42578125 177.83203125 39.42578125 174.45703125 39.23828125 C173.46703125 34.94828125 172.47703125 30.65828125 171.45703125 26.23828125 C171.12703125 30.52828125 170.79703125 34.81828125 170.45703125 39.23828125 C165.50703125 39.23828125 160.55703125 39.23828125 155.45703125 39.23828125 C154.36196633 35.9530865 154.35742517 33.5016471 154.39453125 30.05078125 C154.40355469 28.96410156 154.41257813 27.87742187 154.421875 26.7578125 C154.43927734 25.51064453 154.43927734 25.51064453 154.45703125 24.23828125 C152.80703125 24.23828125 151.15703125 24.23828125 149.45703125 24.23828125 C149.45703125 29.18828125 149.45703125 34.13828125 149.45703125 39.23828125 C146.81703125 39.23828125 144.17703125 39.23828125 141.45703125 39.23828125 C141.12703125 37.58828125 140.79703125 35.93828125 140.45703125 34.23828125 C139.52890625 35.47578125 139.52890625 35.47578125 138.58203125 36.73828125 C136.03134432 39.28896818 134.0295953 39.7033157 130.45703125 39.86328125 C126.59969605 39.67357624 125.60243574 39.34807648 122.39453125 36.92578125 C119.71111045 33.20361691 119.33354983 30.60056715 119.359375 26.1328125 C119.36420898 24.65844727 119.36420898 24.65844727 119.36914062 23.15429688 C119.38170898 21.61805664 119.38170898 21.61805664 119.39453125 20.05078125 C119.39904297 19.01501953 119.40355469 17.97925781 119.40820312 16.91210938 C119.41999115 14.35410859 119.4364461 11.79622392 119.45703125 9.23828125 C116.81703125 9.23828125 114.17703125 9.23828125 111.45703125 9.23828125 C111.45703125 11.21828125 111.45703125 13.19828125 111.45703125 15.23828125 C113.76703125 15.23828125 116.07703125 15.23828125 118.45703125 15.23828125 C118.45703125 15.56828125 118.45703125 15.89828125 118.45703125 16.23828125 C115.81703125 16.23828125 113.17703125 16.23828125 110.45703125 16.23828125 C110.48958333 14.1875 110.52213542 12.13671875 110.5546875 10.0859375 C110.66264309 8.22095984 110.66264309 8.22095984 109.45703125 7.23828125 C109.45703125 10.53828125 109.45703125 13.83828125 109.45703125 17.23828125 C112.42703125 17.23828125 115.39703125 17.23828125 118.45703125 17.23828125 C118.45703125 19.54828125 118.45703125 21.85828125 118.45703125 24.23828125 C115.81703125 24.23828125 113.17703125 24.23828125 110.45703125 24.23828125 C110.12703125 29.18828125 109.79703125 34.13828125 109.45703125 39.23828125 C102.45703125 39.23828125 102.45703125 39.23828125 100.51953125 37.73828125 C100.16890625 37.24328125 99.81828125 36.74828125 99.45703125 36.23828125 C98.98265625 36.73328125 98.50828125 37.22828125 98.01953125 37.73828125 C94.2430569 39.94890038 90.7282289 40.08948078 86.45703125 39.23828125 C83.39453125 36.73828125 83.39453125 36.73828125 81.45703125 34.23828125 C81.12703125 35.88828125 80.79703125 37.53828125 80.45703125 39.23828125 C77.81703125 39.23828125 75.17703125 39.23828125 72.45703125 39.23828125 C70.47703125 32.96828125 68.49703125 26.69828125 66.45703125 20.23828125 C66.12703125 26.50828125 65.79703125 32.77828125 65.45703125 39.23828125 C54.6171875 39.3359375 54.6171875 39.3359375 51.45703125 39.23828125 C50.45703125 38.23828125 50.45703125 38.23828125 50.39453125 35.17578125 C50.41515625 34.20640625 50.43578125 33.23703125 50.45703125 32.23828125 C49.16069504 33.3047324 49.16069504 33.3047324 49.39453125 35.80078125 C49.41515625 36.60515625 49.43578125 37.40953125 49.45703125 38.23828125 C48.96203125 36.25828125 48.96203125 36.25828125 48.45703125 34.23828125 C47.13703125 34.23828125 45.81703125 34.23828125 44.45703125 34.23828125 C44.12703125 35.22828125 43.79703125 36.21828125 43.45703125 37.23828125 C41.45703125 39.23828125 41.45703125 39.23828125 38.234375 39.46875 C36.33365234 39.44748047 36.33365234 39.44748047 34.39453125 39.42578125 C33.12480469 39.41933594 31.85507813 39.41289063 30.546875 39.40625 C27.45703125 39.23828125 27.45703125 39.23828125 26.45703125 38.23828125 C26.22221432 36.05535351 26.04339802 33.86624951 25.89453125 31.67578125 C25.81074219 30.47824219 25.72695312 29.28070313 25.640625 28.046875 C25.58003906 27.12003906 25.51945312 26.19320312 25.45703125 25.23828125 C24.13703125 24.90828125 22.81703125 24.57828125 21.45703125 24.23828125 C21.45703125 29.18828125 21.45703125 34.13828125 21.45703125 39.23828125 C18.81703125 39.23828125 16.17703125 39.23828125 13.45703125 39.23828125 C13.45703125 28.67828125 13.45703125 18.11828125 13.45703125 7.23828125 C11.14703125 7.23828125 8.83703125 7.23828125 6.45703125 7.23828125 C6.45703125 17.79828125 6.45703125 28.35828125 6.45703125 39.23828125 C3.81703125 39.23828125 1.17703125 39.23828125 -1.54296875 39.23828125 C-1.54296875 28.67828125 -1.54296875 18.11828125 -1.54296875 7.23828125 C-3.85296875 7.23828125 -6.16296875 7.23828125 -8.54296875 7.23828125 C-8.58551231 5.23873379 -8.58377658 3.23786489 -8.54296875 1.23828125 C-6.56357109 -0.74111641 -2.70882119 0.02698209 0 0 Z M100.45703125 4.23828125 C101.45703125 6.23828125 101.45703125 6.23828125 101.45703125 6.23828125 Z M101.45703125 6.23828125 C102.45703125 10.23828125 102.45703125 10.23828125 102.45703125 10.23828125 Z M21.45703125 7.23828125 C21.45703125 10.53828125 21.45703125 13.83828125 21.45703125 17.23828125 C23.10703125 16.90828125 24.75703125 16.57828125 26.45703125 16.23828125 C26.45703125 13.59828125 26.45703125 10.95828125 26.45703125 8.23828125 C24.80703125 7.90828125 23.15703125 7.57828125 21.45703125 7.23828125 Z M89.45703125 7.23828125 C88.98541671 11.25879524 89.08974608 12.77261613 91.64453125 16.01171875 C93.03671875 17.29949219 93.03671875 17.29949219 94.45703125 18.61328125 C95.38515625 19.48726562 96.31328125 20.36125 97.26953125 21.26171875 C97.99140625 21.91398437 98.71328125 22.56625 99.45703125 23.23828125 C100.11703125 22.90828125 100.77703125 22.57828125 101.45703125 22.23828125 C101.45703125 18.93828125 101.45703125 15.63828125 101.45703125 12.23828125 C99.14703125 12.23828125 96.83703125 12.23828125 94.45703125 12.23828125 C94.12703125 10.58828125 93.79703125 8.93828125 93.45703125 7.23828125 C92.13703125 7.23828125 90.81703125 7.23828125 89.45703125 7.23828125 Z M128.45703125 7.23828125 C127.20649995 8.26542786 127.20649995 8.26542786 127.34350586 10.46313477 C127.34874268 11.42147217 127.35397949 12.37980957 127.359375 13.3671875 C127.36259766 14.40166016 127.36582031 15.43613281 127.36914062 16.50195312 C127.37751953 17.59056641 127.38589844 18.67917969 127.39453125 19.80078125 C127.39904297 20.89326172 127.40355469 21.98574219 127.40820312 23.11132812 C127.42003299 25.8203662 127.43651582 28.52929724 127.45703125 31.23828125 C129.43703125 32.22828125 129.43703125 32.22828125 131.45703125 33.23828125 C133.68834992 31.43060255 133.68834992 31.43060255 133.68408203 28.89990234 C133.6736084 27.94680176 133.66313477 26.99370117 133.65234375 26.01171875 C133.64589844 24.98046875 133.63945312 23.94921875 133.6328125 22.88671875 C133.61605469 21.80648437 133.59929687 20.72625 133.58203125 19.61328125 C133.57300781 18.5253125 133.56398437 17.43734375 133.5546875 16.31640625 C133.53106534 13.62347973 133.49812681 10.9309887 133.45703125 8.23828125 C131.80088468 7.85609358 130.13246101 7.52433023 128.45703125 7.23828125 Z M149.45703125 7.23828125 C149.45703125 10.53828125 149.45703125 13.83828125 149.45703125 17.23828125 C151.10703125 17.23828125 152.75703125 17.23828125 154.45703125 17.23828125 C154.45703125 13.93828125 154.45703125 10.63828125 154.45703125 7.23828125 C152.80703125 7.23828125 151.15703125 7.23828125 149.45703125 7.23828125 Z M45.45703125 15.23828125 C45.45703125 16.88828125 45.45703125 18.53828125 45.45703125 20.23828125 C46.11703125 20.23828125 46.77703125 20.23828125 47.45703125 20.23828125 C47.45703125 18.58828125 47.45703125 16.93828125 47.45703125 15.23828125 C46.79703125 15.23828125 46.13703125 15.23828125 45.45703125 15.23828125 Z M55.45703125 16.23828125 C55.45703125 17.88828125 55.45703125 19.53828125 55.45703125 21.23828125 C55.78703125 21.23828125 56.11703125 21.23828125 56.45703125 21.23828125 C56.45703125 19.58828125 56.45703125 17.93828125 56.45703125 16.23828125 C56.12703125 16.23828125 55.79703125 16.23828125 55.45703125 16.23828125 Z M44.45703125 21.23828125 C44.45703125 22.88828125 44.45703125 24.53828125 44.45703125 26.23828125 C45.77703125 26.23828125 47.09703125 26.23828125 48.45703125 26.23828125 C48.45703125 24.58828125 48.45703125 22.93828125 48.45703125 21.23828125 C48.12703125 22.55828125 47.79703125 23.87828125 47.45703125 25.23828125 C46.79703125 25.23828125 46.13703125 25.23828125 45.45703125 25.23828125 C45.12703125 23.91828125 44.79703125 22.59828125 44.45703125 21.23828125 Z M100.45703125 23.23828125 C101.45703125 25.23828125 101.45703125 25.23828125 101.45703125 25.23828125 Z M101.45703125 26.23828125 C102.45703125 28.23828125 102.45703125 28.23828125 102.45703125 28.23828125 Z M183.45703125 26.23828125 C183.45703125 27.88828125 183.45703125 29.53828125 183.45703125 31.23828125 C183.78703125 31.23828125 184.11703125 31.23828125 184.45703125 31.23828125 C184.45703125 29.58828125 184.45703125 27.93828125 184.45703125 26.23828125 C184.12703125 26.23828125 183.79703125 26.23828125 183.45703125 26.23828125 Z M101.45703125 31.23828125 C102.45703125 33.23828125 102.45703125 33.23828125 102.45703125 33.23828125 Z M100.45703125 33.23828125 C101.45703125 35.23828125 101.45703125 35.23828125 101.45703125 35.23828125 Z " fill="#FEFEFE" transform="translate(82.54296875,21.76171875)"/>
<path d="M0 0 C0 0.66 0 1.32 0 2 C1.29233607 3.37310707 2.62437146 4.71034824 4 6 C4.33 4.68 4.66 3.36 5 2 C7.64 2 10.28 2 13 2 C13 12.23 13 22.46 13 33 C16.3 33 19.6 33 23 33 C23 31.02 23 29.04 23 27 C25.31 27 27.62 27 30 27 C30.99 29.97 30.99 29.97 32 33 C32.99 33 33.98 33 35 33 C35.05875484 30.17976773 35.01574126 28.58818686 34 26 C31.84595102 23.77022273 29.57991775 21.88847569 27.12890625 19.9921875 C24.71312346 17.73154673 23.85364851 16.18045044 23 13 C23.04293466 9.76916721 23.71729698 6.96446921 25 4 C28.44803042 1.1406577 31.28469757 0.78548752 35.625 1 C38.9394212 1.51979961 39.9169978 1.92914447 42.5625 4.1875 C44.20159367 7.3944224 44.33058394 9.44622262 44 13 C41.69 13 39.38 13 37 13 C37 12.01 37 11.02 37 10 C35.68 10 34.36 10 33 10 C33 13.36722307 33.41708613 15.39274467 35.77734375 17.8515625 C37.19367126 19.05531282 38.63093301 20.23494711 40.08984375 21.38671875 C42.42854966 23.3619448 43.84873577 25.04492472 44.3359375 28.12109375 C44.4420011 34.4106652 44.4420011 34.4106652 42.125 37.5 C37.86548785 40.50671446 34.1115732 40.54475025 29 40 C26.4375 38.5 26.4375 38.5 25 37 C24.67 37.99 24.34 38.98 24 40 C17.73 40 11.46 40 5 40 C4.67 38.35 4.34 36.7 4 35 C3.38125 35.825 2.7625 36.65 2.125 37.5 C-0.43342925 40.06573905 -2.41329227 40.43937421 -6 40.5625 C-10.4686768 40.34272901 -12.90902976 39.39009639 -16 36 C-16.33 35.34 -16.66 34.68 -17 34 C-17.61875 34.804375 -18.2375 35.60875 -18.875 36.4375 C-21 39 -21 39 -23 40 C-25.0234375 40.16796875 -25.0234375 40.16796875 -27.375 40.1875 C-28.14585937 40.20167969 -28.91671875 40.21585938 -29.7109375 40.23046875 C-32.28748088 39.97105568 -33.82425673 39.39340154 -36 38 C-39.36504504 32.95243243 -38.36906613 27.05294001 -38.375 21.125 C-38.39949219 19.84496094 -38.42398438 18.56492187 -38.44921875 17.24609375 C-38.45308594 16.01246094 -38.45695313 14.77882813 -38.4609375 13.5078125 C-38.46915527 12.38004395 -38.47737305 11.25227539 -38.48583984 10.09033203 C-37.89278941 6.31805443 -36.67964185 4.67600515 -34 2 C-30.38069302 0.79356434 -27.80768995 0.67731441 -24 1 C-18.46153846 4.07692308 -18.46153846 4.07692308 -17 7 C-16.38125 6.236875 -15.7625 5.47375 -15.125 4.6875 C-11.70237045 1.22541651 -4.64074326 -2.32037163 0 0 Z M-30 8 C-30 16.25 -30 24.5 -30 33 C-28.68 33.33 -27.36 33.66 -26 34 C-24.72694444 32.95128747 -24.72694444 32.95128747 -24.88647461 30.59155273 C-24.89171143 29.54942627 -24.89694824 28.5072998 -24.90234375 27.43359375 C-24.90556641 26.30888672 -24.90878906 25.18417969 -24.91210938 24.02539062 C-24.92048828 22.84138672 -24.92886719 21.65738281 -24.9375 20.4375 C-24.94201172 19.24962891 -24.94652344 18.06175781 -24.95117188 16.83789062 C-24.96300325 13.89187774 -24.97948713 10.94596319 -25 8 C-26.65 8 -28.3 8 -30 8 Z M-8 8 C-9.26181095 9.03792772 -9.26181095 9.03792772 -9.11352539 11.31665039 C-9.10828857 12.31688232 -9.10305176 13.31711426 -9.09765625 14.34765625 C-9.09443359 15.42724609 -9.09121094 16.50683594 -9.08789062 17.61914062 C-9.07951172 18.75544922 -9.07113281 19.89175781 -9.0625 21.0625 C-9.05798828 22.20267578 -9.05347656 23.34285156 -9.04882812 24.51757812 C-9.03699747 27.34510351 -9.0205141 30.1725264 -9 33 C-7.10820797 33.6814823 -7.10820797 33.6814823 -5 34 C-2.76868133 32.1923213 -2.76868133 32.1923213 -2.77294922 29.66162109 C-2.78342285 28.70852051 -2.79389648 27.75541992 -2.8046875 26.7734375 C-2.81113281 25.7421875 -2.81757813 24.7109375 -2.82421875 23.6484375 C-2.84097656 22.56820312 -2.85773438 21.48796875 -2.875 20.375 C-2.88402344 19.28703125 -2.89304687 18.1990625 -2.90234375 17.078125 C-2.92596591 14.38519848 -2.95890444 11.69270745 -3 9 C-4.65614657 8.61781233 -6.32457024 8.28604898 -8 8 Z M32 8 C36 9 36 9 36 9 Z M31 9 C32 12 32 12 32 12 Z " fill="#FEFEFE" transform="translate(180,62)"/>
<path d="M0 0 C6.59861444 0.41690592 11.15249704 1.15249704 16 6 C16.474375 5.360625 16.94875 4.72125 17.4375 4.0625 C21.05012869 1.15477447 24.4202604 0.77101302 29 1 C32.02336858 2.35086681 33.67585394 3.67585394 36 6 C36.22705078 7.87939453 36.22705078 7.87939453 36.1953125 10.1328125 C36.18886719 10.93847656 36.18242188 11.74414062 36.17578125 12.57421875 C36.15902344 13.41597656 36.14226562 14.25773437 36.125 15.125 C36.11597656 15.97449219 36.10695312 16.82398437 36.09765625 17.69921875 C36.07405647 19.79959884 36.03818483 21.89983444 36 24 C34.02 24 32.04 24 30 24 C30 23.67 30 23.34 30 23 C31.65 23 33.3 23 35 23 C35 20.69 35 18.38 35 16 C33.35 16 31.7 16 30 16 C29.34 13.69 28.68 11.38 28 9 C26.68 8.67 25.36 8.34 24 8 C24.33 16.25 24.66 24.5 25 33 C26.32 33 27.64 33 29 33 C29 30.36 29 27.72 29 25 C31.31 25 33.62 25 36 25 C36.43617985 29.99183607 36.75736156 33.73773073 34.125 38.125 C29.74746874 40.75151876 25.98348218 41.06205358 21 40 C18.7256981 38.53433877 17.65230073 37.20306764 16 35 C15.195625 35.825 14.39125 36.65 13.5625 37.5 C10.17711022 40.31580999 7.45028676 40.67451006 3.12109375 40.43359375 C-0.04410413 39.78656435 -1.81744488 38.31896482 -4 36 C-5.4783226 33.04335481 -5.06032783 30.25770263 -5 27 C-2.69 27 -0.38 27 2 27 C2.66 28.98 3.32 30.96 4 33 C5.32 33 6.64 33 8 33 C6.36847924 27.88790163 4.37134689 25.24013733 0.375 21.625 C-2.77896771 18.61486144 -4.62523741 16.62333816 -5.25 12.25 C-5.31022879 8.41543359 -4.46655213 6.01467483 -2 3 C-1.34 2.34 -0.68 1.68 0 1 C0 0.67 0 0.34 0 0 Z M4 8 C3.13149826 10.24875747 3.13149826 10.24875747 3 13 C4.94960849 16.11937359 7.26880753 18.25434499 10.125 20.5 C12.98299555 22.98521352 13.97814123 24.42349429 15 28 C15.33 28 15.66 28 16 28 C16 22.72 16 17.44 16 12 C13.36 12.33 10.72 12.66 8 13 C8 11.35 8 9.7 8 8 C6.68 8 5.36 8 4 8 Z " fill="#FEFEFE" transform="translate(82,62)"/>
<path d="M0 0 C0.66 0 1.32 0 2 0 C3.40112305 2.01269531 3.40112305 2.01269531 5.01171875 4.828125 C5.90213867 6.37113281 5.90213867 6.37113281 6.81054688 7.9453125 C7.42994141 9.03585938 8.04933594 10.12640625 8.6875 11.25 C9.58758789 12.81621094 9.58758789 12.81621094 10.50585938 14.4140625 C11.72171683 16.52973283 12.93377504 18.64759094 14.14208984 20.76757812 C16.62231736 25.08271771 19.17027514 29.35703125 21.72583008 33.62792969 C23 36 23 36 23 38 C8.48 38 -6.04 38 -21 38 C-19.35548075 33.88870188 -17.60408393 30.3804252 -15.41015625 26.5625 C-15.06496445 25.95994385 -14.71977264 25.3573877 -14.36412048 24.73657227 C-13.26660899 22.82262402 -12.16457445 20.9113237 -11.0625 19 C-10.32588506 17.71631037 -9.5895542 16.43245769 -8.85351562 15.1484375 C-6.90950512 11.76143685 -4.96231568 8.37644429 -3 5 C-2.46947021 4.04222656 -1.93894043 3.08445312 -1.39233398 2.09765625 C-0.93286377 1.40542969 -0.47339355 0.71320312 0 0 Z " fill="#02617C" transform="translate(46,21)"/>
<path d="M0 0 C3.3 0 6.6 0 10 0 C10 4.95 10 9.9 10 15 C10.66 15 11.32 15 12 15 C12 10.05 12 5.1 12 0 C15.3 0 18.6 0 22 0 C22 12.54 22 25.08 22 38 C19.36 38 16.72 38 14 38 C14 32.72 14 27.44 14 22 C12.02 22 10.04 22 8 22 C8 27.28 8 32.56 8 38 C5.36 38 2.72 38 0 38 C0 25.46 0 12.92 0 0 Z " fill="#FEFEFE" transform="translate(119,64)"/>
<path d="M0 0 C0.33 0 0.66 0 1 0 C1 8.25 1 16.5 1 25 C-5.93 28.96 -12.86 32.92 -20 37 C-20 33.32690121 -18.94421413 31.74571343 -17.1484375 28.5546875 C-16.54386719 27.47703125 -15.93929688 26.399375 -15.31640625 25.2890625 C-14.67574219 24.16242187 -14.03507812 23.03578125 -13.375 21.875 C-12.75753906 20.7715625 -12.14007813 19.668125 -11.50390625 18.53125 C-4.08746604 5.38463388 -4.08746604 5.38463388 0 0 Z " fill="#38ADD7" transform="translate(46,22)"/>
<path d="M0 0 C1.77308013 1.15058004 3.46657712 2.3448904 5.13867188 3.63769531 C6.76816754 4.88895047 8.4450226 6.00533692 10.171875 7.1171875 C11.02265625 7.69726562 11.8734375 8.27734375 12.75 8.875 C12.75 9.205 12.75 9.535 12.75 9.875 C-1.11 9.875 -14.97 9.875 -29.25 9.875 C-21.42987713 2.05487713 -10.74266582 -6.46883427 0 0 Z " fill="#01829F" transform="translate(55.25,49.125)"/>
<path d="M0 0 C1.65 0 3.3 0 5 0 C5 9.9 5 19.8 5 30 C4.67 30 4.34 30 4 30 C4 20.43 4 10.86 4 1 C3.01 1 2.02 1 1 1 C1 10.57 1 20.14 1 30 C0.67 30 0.34 30 0 30 C0 20.1 0 10.2 0 0 Z " fill="#FDFDFD" transform="translate(90,30)"/>
<path d="M0 0 C1.32 0 2.64 0 4 0 C4 7.59 4 15.18 4 23 C3.67 23 3.34 23 3 23 C3 15.74 3 8.48 3 1 C2.34 1 1.68 1 1 1 C1 8.26 1 15.52 1 23 C0.67 23 0.34 23 0 23 C0 15.41 0 7.82 0 0 Z " fill="#FEFEFE" transform="translate(211,30)"/>
<path d="M0 0 C1.32 0 2.64 0 4 0 C4 6.93 4 13.86 4 21 C3.67 21 3.34 21 3 21 C3 14.4 3 7.8 3 1 C2.34 1 1.68 1 1 1 C1 8.26 1 15.52 1 23 C0.67 23 0.34 23 0 23 C0 15.41 0 7.82 0 0 Z " fill="#FEFEFE" transform="translate(172,71)"/>
<path d="M0 0 C13.86 0 27.72 0 42 0 C42 0.33 42 0.66 42 1 C28.14 1 14.28 1 0 1 C0 0.67 0 0.34 0 0 Z " fill="#0082A0" transform="translate(26,60)"/>
<path d="M0 0 C0.33 0 0.66 0 1 0 C1 9.57 1 19.14 1 29 C3.31 29 5.62 29 8 29 C8 29.33 8 29.66 8 30 C5.36 30 2.72 30 0 30 C0 20.1 0 10.2 0 0 Z " fill="#FEFEFE" transform="translate(194,64)"/>
<path d="M0 0 C0.33 0 0.66 0 1 0 C1 12.21 1 24.42 1 37 C0.67 37 0.34 37 0 37 C0 24.79 0 12.58 0 0 Z " fill="#FFFFFF" transform="translate(276,23)"/>
<path d="M0 0 C1.65 0 3.3 0 5 0 C5 9.9 5 19.8 5 30 C4.67 30 4.34 30 4 30 C4 20.43 4 10.86 4 1 C2.68 0.67 1.36 0.34 0 0 Z " fill="#FEFEFE" transform="translate(75,30)"/>
<path d="M0 0 C1.32 0 2.64 0 4 0 C4 4.62 4 9.24 4 14 C3.67 14 3.34 14 3 14 C3 9.71 3 5.42 3 1 C2.34 1 1.68 1 1 1 C1 5.29 1 9.58 1 14 C0.67 14 0.34 14 0 14 C0 9.38 0 4.76 0 0 Z " fill="#FEFEFE" transform="translate(128,87)"/>
<path d="M0 0 C0.99 0 1.98 0 3 0 C3 7.92 3 15.84 3 24 C2.01 24 1.02 24 0 24 C0.33 23.34 0.66 22.68 1 22 C1.15175549 20.40737934 1.24900325 18.80935144 1.31640625 17.2109375 C1.35830078 16.26992187 1.40019531 15.32890625 1.44335938 14.359375 C1.48267578 13.37453125 1.52199219 12.3896875 1.5625 11.375 C1.60568359 10.38242188 1.64886719 9.38984375 1.69335938 8.3671875 C1.79961069 5.91160162 1.90164964 3.45591297 2 1 C1.34 0.67 0.68 0.34 0 0 Z " fill="#FEFEFE" transform="translate(151,71)"/>
<path d="M0 0 C0.99 0 1.98 0 3 0 C3 2.64 3 5.28 3 8 C2.01 8 1.02 8 0 8 C0 5.36 0 2.72 0 0 Z M1 1 C1 2.98 1 4.96 1 7 C1.33 7 1.66 7 2 7 C2 5.02 2 3.04 2 1 C1.67 1 1.34 1 1 1 Z " fill="#FEFEFE" transform="translate(105,30)"/>
<path d="M0 0 C5.61 0 11.22 0 17 0 C17 0.33 17 0.66 17 1 C11.39 1 5.78 1 0 1 C0 0.67 0 0.34 0 0 Z " fill="#FEFEFE" transform="translate(186,103)"/>
<path d="M0 0 C2.09566561 4.19133122 2.15337517 5.31164853 1.625 9.75 C1.51414063 10.73484375 1.40328125 11.7196875 1.2890625 12.734375 C1.19367188 13.48203125 1.09828125 14.2296875 1 15 C0.67 15 0.34 15 0 15 C0 10.05 0 5.1 0 0 Z " fill="#FEFEFE" transform="translate(149,45)"/>
<path d="M0 0 C1.98 0 3.96 0 6 0 C6 2.97 6 5.94 6 9 C5.34 8.34 4.68 7.68 4 7 C4.375 3.875 4.375 3.875 5 1 C3.35 1 1.7 1 0 1 C0 0.67 0 0.34 0 0 Z " fill="#FEFEFE" transform="translate(91,76)"/>
<path d="M0 0 C0.33 0 0.66 0 1 0 C1 4.29 1 8.58 1 13 C0.67 13 0.34 13 0 13 C0 8.71 0 4.42 0 0 Z " fill="#FEFEFE" transform="translate(193,47)"/>
<path d="M0 0 C0.33 0 0.66 0 1 0 C1 4.29 1 8.58 1 13 C0.67 13 0.34 13 0 13 C0 8.71 0 4.42 0 0 Z " fill="#FEFEFE" transform="translate(233,47)"/>
<path d="M0 0 C0.33 0 0.66 0 1 0 C1 4.29 1 8.58 1 13 C0.67 13 0.34 13 0 13 C0 8.71 0 4.42 0 0 Z " fill="#FEFEFE" transform="translate(105,47)"/>
<path d="M0 0 C0.33 0 0.66 0 1 0 C1 3.96 1 7.92 1 12 C0.67 12 0.34 12 0 12 C0 8.04 0 4.08 0 0 Z " fill="#FEFEFE" transform="translate(107,47)"/>
<path d="M0 0 C0.99 0.33 1.98 0.66 3 1 C2.34 1 1.68 1 1 1 C1 2.98 1 4.96 1 7 C1.66 7.33 2.32 7.66 3 8 C2.01 8 1.02 8 0 8 C0 5.36 0 2.72 0 0 Z " fill="#FEFEFE" transform="translate(233,30)"/>
<path d="M0 0 C2.97 0 5.94 0 9 0 C9 0.33 9 0.66 9 1 C6.03 1 3.06 1 0 1 C0 0.67 0 0.34 0 0 Z " fill="#FEFEFE" transform="translate(209,103)"/>
<path d="M0 0 C2.97 0 5.94 0 9 0 C9 0.33 9 0.66 9 1 C6.03 1 3.06 1 0 1 C0 0.67 0 0.34 0 0 Z " fill="#FEFEFE" transform="translate(148,103)"/>
<path d="M0 0 C2.97 0 5.94 0 9 0 C9 0.33 9 0.66 9 1 C6.03 1 3.06 1 0 1 C0 0.67 0 0.34 0 0 Z " fill="#FEFEFE" transform="translate(83,103)"/>
<path d="M0 0 C2.64 0 5.28 0 8 0 C8 0.33 8 0.66 8 1 C5.36 1 2.72 1 0 1 C0 0.67 0 0.34 0 0 Z " fill="#FDFDFD" transform="translate(170,103)"/>
<path d="M0 0 C2.64 0 5.28 0 8 0 C8 0.33 8 0.66 8 1 C5.36 1 2.72 1 0 1 C0 0.67 0 0.34 0 0 Z " fill="#FEFEFE" transform="translate(104,103)"/>
<path d="M0 0 C0.33 0 0.66 0 1 0 C1 1.65 1 3.3 1 5 C0.01 5 -0.98 5 -2 5 C-1.34 3.35 -0.68 1.7 0 0 Z " fill="#FEFEFE" transform="translate(214,90)"/>
<path d="M0 0 C0.99 0 1.98 0 3 0 C3 1.98 3 3.96 3 6 C2.67 6 2.34 6 2 6 C2 4.35 2 2.7 2 1 C1.34 0.67 0.68 0.34 0 0 Z " fill="#FEFEFE" transform="translate(107,71)"/>
<path d="M0 0 C0.99 0 1.98 0 3 0 C2 3 2 3 0 4 C0 2.68 0 1.36 0 0 Z " fill="#FEFEFE" transform="translate(86,71)"/>
<path d="M0 0 C2.31 0 4.62 0 7 0 C5.02 0.99 5.02 0.99 3 2 C2.01 1.34 1.02 0.68 0 0 Z " fill="#FEFEFE" transform="translate(142,62)"/>
<path d="M0 0 C2.64 0 5.28 0 8 0 C8 0.33 8 0.66 8 1 C5.36 1 2.72 1 0 1 C0 0.67 0 0.34 0 0 Z " fill="#FEFEFE" transform="translate(118,62)"/>
<path d="M0 0 C2.31 0 4.62 0 7 0 C6.01 0.66 5.02 1.32 4 2 C2.68 1.34 1.36 0.68 0 0 Z " fill="#FEFEFE" transform="translate(97,62)"/>
<path d="M0 0 C0.33 0 0.66 0 1 0 C1 2.31 1 4.62 1 7 C0.67 7 0.34 7 0 7 C0 4.69 0 2.38 0 0 Z " fill="#FEFEFE" transform="translate(109,87)"/>
<path d="M0 0 C2.31 0 4.62 0 7 0 C7 0.33 7 0.66 7 1 C4.69 1 2.38 1 0 1 C0 0.67 0 0.34 0 0 Z " fill="#FEFEFE" transform="translate(185,62)"/>
<path d="M0 0 C1.98 0 3.96 0 6 0 C5.01 0.66 4.02 1.32 3 2 C2.01 1.34 1.02 0.68 0 0 Z " fill="#FEFEFE" transform="translate(156,62)"/>
<path d="M0 0 C2.31 0 4.62 0 7 0 C7 0.33 7 0.66 7 1 C4.69 1 2.38 1 0 1 C0 0.67 0 0.34 0 0 Z " fill="#FEFEFE" transform="translate(134,62)"/>
<path d="M0 0 C1.98 0 3.96 0 6 0 C6 0.33 6 0.66 6 1 C4.02 1 2.04 1 0 1 C0 0.67 0 0.34 0 0 Z " fill="#FEFEFE" transform="translate(134,103)"/>
<path d="M0 0 C1.98 0 3.96 0 6 0 C6 0.33 6 0.66 6 1 C4.02 1 2.04 1 0 1 C0 0.67 0 0.34 0 0 Z " fill="#FEFEFE" transform="translate(120,103)"/>
<path d="M0 0 C0.33 0 0.66 0 1 0 C1 1.98 1 3.96 1 6 C0.67 6 0.34 6 0 6 C0 4.02 0 2.04 0 0 Z " fill="#FEFEFE" transform="translate(75,90)"/>
<path d="M0 0 C0.33 0 0.66 0 1 0 C1 1.98 1 3.96 1 6 C0.67 6 0.34 6 0 6 C0 4.02 0 2.04 0 0 Z " fill="#FEFEFE" transform="translate(75,70)"/>
<path d="M0 0 C1.98 0 3.96 0 6 0 C6 0.33 6 0.66 6 1 C4.02 1 2.04 1 0 1 C0 0.67 0 0.34 0 0 Z " fill="#FFFFFF" transform="translate(268,62)"/>
<path d="M0 0 C1.98 0 3.96 0 6 0 C6 0.33 6 0.66 6 1 C4.02 1 2.04 1 0 1 C0 0.67 0 0.34 0 0 Z " fill="#FFFFFF" transform="translate(239,62)"/>
<path d="M0 0 C1.98 0 3.96 0 6 0 C6 0.33 6 0.66 6 1 C4.02 1 2.04 1 0 1 C0 0.67 0 0.34 0 0 Z " fill="#FFFFFF" transform="translate(225,62)"/>
<path d="M0 0 C1.65 0 3.3 0 5 0 C4.34 0.66 3.68 1.32 3 2 C2.01 1.34 1.02 0.68 0 0 Z " fill="#FEFEFE" transform="translate(111,62)"/>
<path d="M0 0 C0.33 0 0.66 0 1 0 C1 1.98 1 3.96 1 6 C0.67 6 0.34 6 0 6 C0 4.02 0 2.04 0 0 Z " fill="#FEFEFE" transform="translate(254,53)"/>
<path d="M0 0 C1.98 0 3.96 0 6 0 C6 0.33 6 0.66 6 1 C4.02 1 2.04 1 0 1 C0 0.67 0 0.34 0 0 Z " fill="#FEFEFE" transform="translate(177,35)"/>
<path d="M0 0 C0.33 0 0.66 0 1 0 C1 1.98 1 3.96 1 6 C0.67 6 0.34 6 0 6 C0 4.02 0 2.04 0 0 Z " fill="#FEFEFE" transform="translate(118,30)"/>
<path d="M0 0 C1.65 0 3.3 0 5 0 C5 0.33 5 0.66 5 1 C3.35 1 1.7 1 0 1 C0 0.67 0 0.34 0 0 Z " fill="#FFFFFF" transform="translate(218,76)"/>
<path d="M0 0 C1.65 0 3.3 0 5 0 C5 0.33 5 0.66 5 1 C3.35 1 1.7 1 0 1 C0 0.67 0 0.34 0 0 Z " fill="#FFFFFF" transform="translate(258,62)"/>
<path d="M0 0 C1.65 0 3.3 0 5 0 C5 0.33 5 0.66 5 1 C3.35 1 1.7 1 0 1 C0 0.67 0 0.34 0 0 Z " fill="#FFFFFF" transform="translate(247,62)"/>
<path d="M0 0 C1.65 0 3.3 0 5 0 C5 0.33 5 0.66 5 1 C3.35 1 1.7 1 0 1 C0 0.67 0 0.34 0 0 Z " fill="#FEFEFE" transform="translate(150,61)"/>
<path d="M0 0 C0.33 1.32 0.66 2.64 1 4 C0.34 3.67 -0.32 3.34 -1 3 C-0.67 2.01 -0.34 1.02 0 0 Z " fill="#FEFEFE" transform="translate(118,42)"/>
<path d="M0 0 C0.33 0 0.66 0 1 0 C1 1.65 1 3.3 1 5 C0.67 5 0.34 5 0 5 C0 3.35 0 1.7 0 0 Z " fill="#FEFEFE" transform="translate(121,25)"/>
<path d="M0 0 C1 4 1 4 1 4 Z " fill="#FEFEFE" transform="translate(225,90)"/>
<path d="M0 0 C1 4 1 4 1 4 Z " fill="#FEFEFE" transform="translate(225,70)"/>
<path d="M0 0 C0.66 0.66 1.32 1.32 2 2 C1.01 2.495 1.01 2.495 0 3 C0 2.01 0 1.02 0 0 Z " fill="#FDFDFD" transform="translate(142,64)"/>
<path d="M0 0 C4 1 4 1 4 1 Z " fill="#FEFEFE" transform="translate(106,61)"/>
<path d="M0 0 C1 4 1 4 1 4 Z " fill="#FEFEFE" transform="translate(172,49)"/>
<path d="M0 0 C1 4 1 4 1 4 Z " fill="#FEFEFE" transform="translate(259,29)"/>
<path d="M0 0 C1 4 1 4 1 4 Z " fill="#FFFFFF" transform="translate(262,24)"/>
<path d="M0 0 C1 4 1 4 1 4 Z " fill="#FEFEFE" transform="translate(72,24)"/>
<path d="M0 0 C4 1 4 1 4 1 Z " fill="#FEFEFE" transform="translate(211,20)"/>
<path d="M0 0 C4 1 4 1 4 1 Z " fill="#FEFEFE" transform="translate(172,20)"/>
<path d="M0 0 C0.33 0.66 0.66 1.32 1 2 C0.34 1.67 -0.32 1.34 -1 1 C-0.67 0.67 -0.34 0.34 0 0 Z " fill="#FEFEFE" transform="translate(183,99)"/>
<path d="" fill="#FEFEFE" transform="translate(0,0)"/>
<path d="M0 0 C0.33 0.66 0.66 1.32 1 2 C0.34 1.67 -0.32 1.34 -1 1 C-0.67 0.67 -0.34 0.34 0 0 Z " fill="#FEFEFE" transform="translate(117,99)"/>
<path d="" fill="#FEFEFE" transform="translate(0,0)"/>
<path d="M0 0 C0.66 0.66 1.32 1.32 2 2 C1.34 2 0.68 2 0 2 C0 1.34 0 0.68 0 0 Z " fill="#FEFEFE" transform="translate(214,76)"/>
<path d="" fill="#FEFEFE" transform="translate(0,0)"/>
<path d="M0 0 C3 1 3 1 3 1 Z " fill="#FEFEFE" transform="translate(208,62)"/>
<path d="M0 0 C0.33 0.66 0.66 1.32 1 2 C0.34 1.67 -0.32 1.34 -1 1 C-0.67 0.67 -0.34 0.34 0 0 Z " fill="#FEFEFE" transform="translate(218,61)"/>
<path d="" fill="#FDFDFD" transform="translate(0,0)"/>
<path d="" fill="#FEFEFE" transform="translate(0,0)"/>
<path d="" fill="#FEFEFE" transform="translate(0,0)"/>
<path d="" fill="#FDFDFD" transform="translate(0,0)"/>
<path d="" fill="#FEFEFE" transform="translate(0,0)"/>
<path d="" fill="#FEFEFE" transform="translate(0,0)"/>
<path d="" fill="#FEFEFE" transform="translate(0,0)"/>
<path d="" fill="#FEFEFE" transform="translate(0,0)"/>
<path d="" fill="#FEFEFE" transform="translate(0,0)"/>
<path d="" fill="#FFFFFF" transform="translate(0,0)"/>
<path d="M0 0 C3 1 3 1 3 1 Z " fill="#FFFFFF" transform="translate(238,21)"/>
<path d="M0 0 C2 1 2 1 2 1 Z " fill="#FEFEFE" transform="translate(162,98)"/>
<path d="" fill="#FFFFFF" transform="translate(0,0)"/>
<path d="M0 0 C2 1 2 1 2 1 Z " fill="#FEFEFE" transform="translate(173,94)"/>
<path d="M0 0 C2 1 2 1 2 1 Z " fill="#FFFFFF" transform="translate(107,94)"/>
<path d="M0 0 C2 1 2 1 2 1 Z " fill="#FEFEFE" transform="translate(86,94)"/>
<path d="" fill="#FEFEFE" transform="translate(0,0)"/>
<path d="" fill="#FEFEFE" transform="translate(0,0)"/>
<path d="" fill="#FEFEFE" transform="translate(0,0)"/>
<path d="" fill="#FEFEFE" transform="translate(0,0)"/>
<path d="" fill="#FEFEFE" transform="translate(0,0)"/>
<path d="" fill="#FDFDFD" transform="translate(0,0)"/>
<path d="" fill="#FEFEFE" transform="translate(0,0)"/>
<path d="M0 0 C2 1 2 1 2 1 Z " fill="#FEFEFE" transform="translate(169,62)"/>
<path d="M0 0 C2 1 2 1 2 1 Z " fill="#FEFEFE" transform="translate(91,62)"/>
<path d="" fill="#FEFEFE" transform="translate(0,0)"/>
<path d="" fill="#FEFEFE" transform="translate(0,0)"/>
<path d="" fill="#FEFEFE" transform="translate(0,0)"/>
<path d="" fill="#38ADD7" transform="translate(0,0)"/>
<path d="" fill="#03627C" transform="translate(0,0)"/>
<path d="" fill="#38ADD7" transform="translate(0,0)"/>
<path d="M0 0 C2 1 2 1 2 1 Z " fill="#FDFDFD" transform="translate(170,45)"/>
<path d="" fill="#FEFEFE" transform="translate(0,0)"/>
<path d="" fill="#38ADD8" transform="translate(0,0)"/>
<path d="" fill="#03617B" transform="translate(0,0)"/>
<path d="" fill="#3AADD8" transform="translate(0,0)"/>
<path d="M0 0 C2 1 2 1 2 1 Z " fill="#FEFEFE" transform="translate(174,30)"/>
<path d="" fill="#FEFEFE" transform="translate(0,0)"/>
<path d="" fill="#FFFFFF" transform="translate(0,0)"/>
<path d="" fill="#38ACD7" transform="translate(0,0)"/>
<path d="M0 0 C2 1 2 1 2 1 Z " fill="#FDFDFD" transform="translate(178,21)"/>
<path d="M0 0 C2 1 2 1 2 1 Z " fill="#FFFFFF" transform="translate(110,21)"/>
<path d="" fill="#FFFFFF" transform="translate(0,0)"/>
<path d="" fill="#FFFFFF" transform="translate(0,0)"/>
<path d="" fill="#FFFFFF" transform="translate(0,0)"/>
<path d="" fill="#FEFEFE" transform="translate(0,0)"/>
<path d="" fill="#FEFEFE" transform="translate(0,0)"/>
<path d="" fill="#FEFEFE" transform="translate(0,0)"/>
<path d="" fill="#FEFEFE" transform="translate(0,0)"/>
<path d="" fill="#FEFEFE" transform="translate(0,0)"/>
<path d="" fill="#FEFEFE" transform="translate(0,0)"/>
<path d="" fill="#FEFEFE" transform="translate(0,0)"/>
<path d="" fill="#FFFFFF" transform="translate(0,0)"/>
<path d="" fill="#FFFFFF" transform="translate(0,0)"/>
<path d="" fill="#FEFEFE" transform="translate(0,0)"/>
<path d="" fill="#FEFEFE" transform="translate(0,0)"/>
<path d="" fill="#FEFEFE" transform="translate(0,0)"/>
<path d="" fill="#FEFEFE" transform="translate(0,0)"/>
<path d="" fill="#FEFEFE" transform="translate(0,0)"/>
<path d="" fill="#FEFEFE" transform="translate(0,0)"/>
<path d="" fill="#FEFEFE" transform="translate(0,0)"/>
<path d="" fill="#FEFEFE" transform="translate(0,0)"/>
<path d="" fill="#FFFFFF" transform="translate(0,0)"/>
<path d="" fill="#FEFEFE" transform="translate(0,0)"/>
<path d="" fill="#FEFEFE" transform="translate(0,0)"/>
<path d="" fill="#FEFEFE" transform="translate(0,0)"/>
<path d="" fill="#FFFFFF" transform="translate(0,0)"/>
<path d="" fill="#FFFFFF" transform="translate(0,0)"/>
<path d="" fill="#FEFEFE" transform="translate(0,0)"/>
<path d="" fill="#FEFEFE" transform="translate(0,0)"/>
<path d="" fill="#FEFEFE" transform="translate(0,0)"/>
<path d="" fill="#FFFFFF" transform="translate(0,0)"/>
<path d="" fill="#FEFEFE" transform="translate(0,0)"/>
<path d="" fill="#FEFEFE" transform="translate(0,0)"/>
<path d="" fill="#FFFFFF" transform="translate(0,0)"/>
<path d="" fill="#FFFFFF" transform="translate(0,0)"/>
<path d="" fill="#FEFEFE" transform="translate(0,0)"/>
<path d="" fill="#FFFFFF" transform="translate(0,0)"/>
<path d="" fill="#FEFEFE" transform="translate(0,0)"/>
<path d="" fill="#FFFFFF" transform="translate(0,0)"/>
<path d="" fill="#FEFEFE" transform="translate(0,0)"/>
<path d="" fill="#FFFFFF" transform="translate(0,0)"/>
<path d="" fill="#FEFEFE" transform="translate(0,0)"/>
<path d="" fill="#FEFEFE" transform="translate(0,0)"/>
<path d="" fill="#FFFFFF" transform="translate(0,0)"/>
<path d="" fill="#FFFFFF" transform="translate(0,0)"/>
<path d="" fill="#FFFFFF" transform="translate(0,0)"/>
<path d="" fill="#FFFFFF" transform="translate(0,0)"/>
<path d="" fill="#FEFEFE" transform="translate(0,0)"/>
<path d="" fill="#FEFEFE" transform="translate(0,0)"/>
<path d="" fill="#FEFEFE" transform="translate(0,0)"/>
<path d="" fill="#FEFEFE" transform="translate(0,0)"/>
<path d="" fill="#FFFFFF" transform="translate(0,0)"/>
<path d="" fill="#FFFFFF" transform="translate(0,0)"/>
<path d="" fill="#FEFEFE" transform="translate(0,0)"/>
<path d="" fill="#FFFFFF" transform="translate(0,0)"/>
<path d="" fill="#FFFFFF" transform="translate(0,0)"/>
<path d="" fill="#FFFFFF" transform="translate(0,0)"/>
<path d="" fill="#FFFFFF" transform="translate(0,0)"/>
<path d="" fill="#FFFFFF" transform="translate(0,0)"/>
<path d="" fill="#FEFEFE" transform="translate(0,0)"/>
<path d="" fill="#FEFEFE" transform="translate(0,0)"/>
<path d="" fill="#FEFEFE" transform="translate(0,0)"/>
<path d="" fill="#FEFEFE" transform="translate(0,0)"/>
<path d="" fill="#FEFEFE" transform="translate(0,0)"/>
<path d="" fill="#FEFEFE" transform="translate(0,0)"/>
<path d="" fill="#FFFFFF" transform="translate(0,0)"/>
<path d="" fill="#FEFEFE" transform="translate(0,0)"/>
<path d="" fill="#FEFEFE" transform="translate(0,0)"/>
<path d="" fill="#FFFFFF" transform="translate(0,0)"/>
<path d="" fill="#FEFEFE" transform="translate(0,0)"/>
<path d="" fill="#FEFEFE" transform="translate(0,0)"/>
<path d="" fill="#FFFFFF" transform="translate(0,0)"/>
<path d="" fill="#FFFFFF" transform="translate(0,0)"/>
<path d="" fill="#FFFFFF" transform="translate(0,0)"/>
<path d="" fill="#FEFEFE" transform="translate(0,0)"/>
<path d="" fill="#FFFFFF" transform="translate(0,0)"/>
<path d="" fill="#FEFEFE" transform="translate(0,0)"/>
<path d="" fill="#FEFEFE" transform="translate(0,0)"/>
<path d="" fill="#FEFEFE" transform="translate(0,0)"/>
<path d="" fill="#FFFFFF" transform="translate(0,0)"/>
<path d="" fill="#FEFEFE" transform="translate(0,0)"/>
<path d="" fill="#FEFEFE" transform="translate(0,0)"/>
<path d="" fill="#FFFFFF" transform="translate(0,0)"/>
<path d="" fill="#FEFEFE" transform="translate(0,0)"/>
<path d="" fill="#FFFFFF" transform="translate(0,0)"/>
<path d="" fill="#FFFFFF" transform="translate(0,0)"/>
<path d="" fill="#FEFEFE" transform="translate(0,0)"/>
<path d="" fill="#FFFFFF" transform="translate(0,0)"/>
<path d="" fill="#FFFFFF" transform="translate(0,0)"/>
<path d="" fill="#FFFFFF" transform="translate(0,0)"/>
<path d="" fill="#FEFEFE" transform="translate(0,0)"/>
<path d="" fill="#FEFEFE" transform="translate(0,0)"/>
<path d="" fill="#FEFEFE" transform="translate(0,0)"/>
<path d="" fill="#FEFEFE" transform="translate(0,0)"/>
<path d="" fill="#FEFEFE" transform="translate(0,0)"/>
<path d="" fill="#FFFFFF" transform="translate(0,0)"/>
<path d="" fill="#FEFEFE" transform="translate(0,0)"/>
<path d="" fill="#006680" transform="translate(0,0)"/>
<path d="" fill="#005872" transform="translate(0,0)"/>
<path d="" fill="#3AAED8" transform="translate(0,0)"/>
<path d="" fill="#40B4E0" transform="translate(0,0)"/>
<path d="" fill="#166A84" transform="translate(0,0)"/>
<path d="" fill="#02627C" transform="translate(0,0)"/>
<path d="" fill="#38ACD8" transform="translate(0,0)"/>
<path d="" fill="#02607C" transform="translate(0,0)"/>
<path d="" fill="#38ACD8" transform="translate(0,0)"/>
<path d="" fill="#FEFEFE" transform="translate(0,0)"/>
<path d="" fill="#FFFFFF" transform="translate(0,0)"/>
<path d="" fill="#FEFEFE" transform="translate(0,0)"/>
<path d="" fill="#02607C" transform="translate(0,0)"/>
<path d="" fill="#FEFEFE" transform="translate(0,0)"/>
<path d="" fill="#38AED8" transform="translate(0,0)"/>
<path d="" fill="#04627C" transform="translate(0,0)"/>
<path d="" fill="#FEFEFE" transform="translate(0,0)"/>
<path d="" fill="#04627C" transform="translate(0,0)"/>
<path d="" fill="#38ACD8" transform="translate(0,0)"/>
<path d="" fill="#FEFEFE" transform="translate(0,0)"/>
<path d="" fill="#FEFEFE" transform="translate(0,0)"/>
<path d="" fill="#FEFEFE" transform="translate(0,0)"/>
<path d="" fill="#FEFEFE" transform="translate(0,0)"/>
<path d="" fill="#02607C" transform="translate(0,0)"/>
<path d="" fill="#38ACD8" transform="translate(0,0)"/>
<path d="" fill="#FFFFFF" transform="translate(0,0)"/>
<path d="" fill="#FEFEFE" transform="translate(0,0)"/>
<path d="" fill="#FEFEFE" transform="translate(0,0)"/>
<path d="" fill="#04627C" transform="translate(0,0)"/>
<path d="" fill="#FFFFFF" transform="translate(0,0)"/>
<path d="" fill="#38ACD8" transform="translate(0,0)"/>
<path d="" fill="#FEFEFE" transform="translate(0,0)"/>
<path d="" fill="#FFFFFF" transform="translate(0,0)"/>
<path d="" fill="#FEFEFE" transform="translate(0,0)"/>
<path d="" fill="#02627C" transform="translate(0,0)"/>
<path d="" fill="#38AED8" transform="translate(0,0)"/>
<path d="" fill="#FEFEFE" transform="translate(0,0)"/>
<path d="" fill="#FEFEFE" transform="translate(0,0)"/>
<path d="" fill="#04607C" transform="translate(0,0)"/>
<path d="" fill="#FFFFFF" transform="translate(0,0)"/>
<path d="" fill="#38AED8" transform="translate(0,0)"/>
<path d="" fill="#02627C" transform="translate(0,0)"/>
<path d="" fill="#FFFFFF" transform="translate(0,0)"/>
<path d="" fill="#FFFFFF" transform="translate(0,0)"/>
<path d="" fill="#02607C" transform="translate(0,0)"/>
<path d="" fill="#38ACD8" transform="translate(0,0)"/>
<path d="" fill="#04627C" transform="translate(0,0)"/>
<path d="" fill="#3EB0DC" transform="translate(0,0)"/>
<path d="" fill="#38ACD8" transform="translate(0,0)"/>
<path d="" fill="#04627C" transform="translate(0,0)"/>
<path d="" fill="#FEFEFE" transform="translate(0,0)"/>
<path d="" fill="#04627C" transform="translate(0,0)"/>
<path d="" fill="#38ACD8" transform="translate(0,0)"/>
<path d="" fill="#FCFCFC" transform="translate(0,0)"/>
<path d="" fill="#02627C" transform="translate(0,0)"/>
<path d="" fill="#38ACD6" transform="translate(0,0)"/>
<path d="" fill="#FFFFFF" transform="translate(0,0)"/>
<path d="" fill="#FFFFFF" transform="translate(0,0)"/>
<path d="" fill="#FEFEFE" transform="translate(0,0)"/>
<path d="" fill="#FEFEFE" transform="translate(0,0)"/>
<path d="" fill="#FEFEFE" transform="translate(0,0)"/>
<path d="" fill="#FEFEFE" transform="translate(0,0)"/>
<path d="" fill="#0C6078" transform="translate(0,0)"/>
<path d="" fill="#FEFEFE" transform="translate(0,0)"/>
<path d="" fill="#FFFFFF" transform="translate(0,0)"/>
<path d="" fill="#FEFEFE" transform="translate(0,0)"/>
<path d="" fill="#FEFEFE" transform="translate(0,0)"/>
<path d="" fill="#FEFEFE" transform="translate(0,0)"/>
<path d="" fill="#30A0C8" transform="translate(0,0)"/>
<path d="" fill="#FFFFFF" transform="translate(0,0)"/>
<path d="" fill="#FFFFFF" transform="translate(0,0)"/>
<path d="" fill="#FEFEFE" transform="translate(0,0)"/>
<path d="" fill="#006C8C" transform="translate(0,0)"/>
<path d="" fill="#2084A4" transform="translate(0,0)"/>
</svg>
