<?xml version="1.0" encoding="UTF-8"?>
<svg version="1.1" xmlns="http://www.w3.org/2000/svg" width="320" height="119">
<path d="M0 0 C5.87155408 -0.07433795 11.74283219 -0.12869117 17.61474609 -0.16479492 C19.61088841 -0.17985098 21.60699781 -0.20030027 23.60302734 -0.22631836 C26.47762185 -0.26284161 29.35177772 -0.27975837 32.2265625 -0.29296875 C33.55815903 -0.31619453 33.55815903 -0.31619453 34.91665649 -0.33988953 C40.02838546 -0.34126775 43.59650127 0.10165196 48 3 C51.11477757 7.46451452 51.82299218 11.70330671 51 17 C49.5 20.375 49.5 20.375 48 23 C48 23.66 48 24.32 48 25 C48.639375 25.28875 49.27875 25.5775 49.9375 25.875 C52 27 52 27 53 29 C55.10906464 22.17154857 56.32127157 15.23620007 57.58789062 8.2109375 C57.75611328 7.29828125 57.92433594 6.385625 58.09765625 5.4453125 C58.24726807 4.61531738 58.39687988 3.78532227 58.55102539 2.93017578 C59 1 59 1 60 0 C64.00220653 -0.14355117 67.99441683 -0.04216403 72 0 C73.32 6.27 74.64 12.54 76 19 C76.33 19 76.66 19 77 19 C77.33 13.06 77.66 7.12 78 1 C78.33 1 78.66 1 79 1 C79 12.22 79 23.44 79 35 C79.33 23.45 79.66 11.9 80 0 C83.63 0 87.26 0 91 0 C92.98 6.27 94.96 12.54 97 19 C97.33 12.73 97.66 6.46 98 0 C100.64 0 103.28 0 106 0 C106 15.18 106 30.36 106 46 C103.03 46 100.06 46 97 46 C94.42329784 39.73482064 92.07477693 33.44848788 90 27 C89.93941406 28.28777344 89.87882812 29.57554688 89.81640625 30.90234375 C89.73201753 32.58074159 89.6473687 34.25912636 89.5625 35.9375 C89.52318359 36.78763672 89.48386719 37.63777344 89.44335938 38.51367188 C89.40146484 39.32255859 89.35957031 40.13144531 89.31640625 40.96484375 C89.27974854 41.7137085 89.24309082 42.46257324 89.20532227 43.23413086 C89 45 89 45 88 46 C85.15664952 46.09986975 82.34302837 46.13877881 79.5 46.125 C78.30310547 46.13080078 78.30310547 46.13080078 77.08203125 46.13671875 C71.12660767 46.12660767 71.12660767 46.12660767 70 45 C69.95936168 43.33382885 69.957279 41.66611905 70 40 C67.36 40.33 64.72 40.66 62 41 C61.67 40.01 61.34 39.02 61 38 C60.67 40.64 60.34 43.28 60 46 C53.4 46 46.8 46 40 46 C40.33 40.39 40.66 34.78 41 29 C39.35 29.66 37.7 30.32 36 31 C35.67 35.95 35.34 40.9 35 46 C32.03 46 29.06 46 26 46 C24.41354643 42.82709287 24.87921787 39.41174616 24.90234375 35.9296875 C24.9037587 35.13345978 24.90517365 34.33723206 24.90663147 33.51687622 C24.91223655 30.9695462 24.92478986 28.42230353 24.9375 25.875 C24.94251435 24.14974085 24.94707737 22.42448033 24.95117188 20.69921875 C24.96220763 16.46611209 24.97947564 12.23307086 25 8 C23.35 8.33 21.7 8.66 20 9 C20 20.88 20 32.76 20 45 C17 46 17 46 8 46 C8 33.46 8 20.92 8 8 C5.36 8 2.72 8 0 8 C0 5.36 0 2.72 0 0 Z M35 8 C35 12.29 35 16.58 35 21 C36.98 20.34 38.96 19.68 41 19 C41.02688151 17.35425434 41.04634123 15.70838587 41.0625 14.0625 C41.07410156 13.14597656 41.08570313 12.22945312 41.09765625 11.28515625 C41.25949049 9.03406673 41.25949049 9.03406673 40 8 C38.35 8 36.7 8 35 8 Z M65 13 C64.77718126 14.91503674 64.57228924 16.83216506 64.375 18.75 C64.25898438 19.81734375 64.14296875 20.8846875 64.0234375 21.984375 C63.99954054 25.05911682 64.34978851 26.45938662 66 29 C66.33 29.33 66.66 29.66 67 30 C65.35 30 63.7 30 62 30 C62 30.33 62 30.66 62 31 C63.98 31 65.96 31 68 31 C67.34908323 21.95764945 67.34908323 21.95764945 66 13 C65.67 13 65.34 13 65 13 Z M88 18 C89 20 89 20 89 20 Z M89 21 C90 25 90 25 90 25 Z M77 24 C77 25.65 77 27.3 77 29 C77.33 29 77.66 29 78 29 C78 27.35 78 25.7 78 24 C77.67 24 77.34 24 77 24 Z M63 25 C64 29 64 29 64 29 Z M35 28 C39 29 39 29 39 29 Z M51 30 C52 34 52 34 52 34 Z M52 34 C51.08307039 36.75078884 50.89113917 38.35948913 50.9375 41.1875 C50.958125 42.445625 50.97875 43.70375 51 45 C51.33 45 51.66 45 52 45 C52.33 41.37 52.66 37.74 53 34 C52.67 34 52.34 34 52 34 Z " fill="#FDFDFD" transform="translate(68,10)"/>
<path d="M0 0 C1.43472656 -0.02126953 1.43472656 -0.02126953 2.8984375 -0.04296875 C5.67630771 0.1918369 7.19575985 0.91937243 9.625 2.1875 C10.285 1.8575 10.945 1.5275 11.625 1.1875 C11.625 5.4775 11.625 9.7675 11.625 14.1875 C3.875 14.3125 3.875 14.3125 1.625 13.1875 C1.625 12.1975 1.625 11.2075 1.625 10.1875 C0.635 10.1875 -0.355 10.1875 -1.375 10.1875 C-1.78855696 12.9822046 -1.78855696 12.9822046 -1.375 16.1875 C0.73886487 18.84787057 0.73886487 18.84787057 3.5625 21.0625 C4.47902344 21.84367187 5.39554688 22.62484375 6.33984375 23.4296875 C8.27659952 25.28911846 8.27659952 25.28911846 9.625 25.1875 C9.955 22.2175 10.285 19.2475 10.625 16.1875 C8.315 16.1875 6.005 16.1875 3.625 16.1875 C3.625 15.8575 3.625 15.5275 3.625 15.1875 C6.265 15.1875 8.905 15.1875 11.625 15.1875 C11.625 19.8075 11.625 24.4275 11.625 29.1875 C11.955 19.6175 12.285 10.0475 12.625 0.1875 C19.885 0.1875 27.145 0.1875 34.625 0.1875 C35.12 2.6625 35.12 2.6625 35.625 5.1875 C36.24375 4.548125 36.8625 3.90875 37.5 3.25 C41.35764796 -0.49418773 44.73416158 -0.14518766 49.921875 -0.09765625 C53.56974364 0.28716226 55.24820018 1.42734537 57.625 4.1875 C60.90173664 9.27784516 60.03520636 15.56527968 60.05053711 21.40429688 C60.06242706 23.54934171 60.11162595 25.6914999 60.16210938 27.8359375 C60.17157594 29.21092356 60.17880987 30.58592717 60.18359375 31.9609375 C60.20377563 33.82371338 60.20377563 33.82371338 60.22436523 35.72412109 C59.30547532 41.03384505 56.38441548 43.42808452 52.625 47.1875 C52.955 47.8475 53.285 48.5075 53.625 49.1875 C49.665 49.1875 45.705 49.1875 41.625 49.1875 C41.295 48.1975 40.965 47.2075 40.625 46.1875 C39.820625 45.589375 39.01625 44.99125 38.1875 44.375 C34.48664558 41.21573403 33.76471696 37.93375141 33.38208008 33.15136719 C33.38618896 32.10625977 33.39029785 31.06115234 33.39453125 29.984375 C33.39646484 28.8396875 33.39839844 27.695 33.40039062 26.515625 C33.41875977 24.74445312 33.41875977 24.74445312 33.4375 22.9375 C33.43814453 21.74125 33.43878906 20.545 33.43945312 19.3125 C33.48447321 10.46855357 33.48447321 10.46855357 34.625 8.1875 C30.335 8.1875 26.045 8.1875 21.625 8.1875 C21.625 12.1475 21.625 16.1075 21.625 20.1875 C25.255 20.1875 28.885 20.1875 32.625 20.1875 C32.625 22.8275 32.625 25.4675 32.625 28.1875 C28.995 28.1875 25.365 28.1875 21.625 28.1875 C21.625 34.1275 21.625 40.0675 21.625 46.1875 C18.655 46.1875 15.685 46.1875 12.625 46.1875 C12.295 44.2075 11.965 42.2275 11.625 40.1875 C11.00625 40.97125 10.3875 41.755 9.75 42.5625 C7.625 45.1875 7.625 45.1875 5.625 47.1875 C5.955 47.8475 6.285 48.5075 6.625 49.1875 C2.335 49.1875 -1.955 49.1875 -6.375 49.1875 C-6.375 48.1975 -6.375 47.2075 -6.375 46.1875 C-8.00435241 44.80881719 -9.67249607 43.47475907 -11.375 42.1875 C-13.61245673 37.71258655 -12.68619779 31.2347076 -12.72509766 26.26708984 C-12.74162431 24.72103793 -12.76887144 23.17506139 -12.80712891 21.62939453 C-12.86216157 19.39315417 -12.88381095 17.15870315 -12.8984375 14.921875 C-12.92110687 14.2372821 -12.94377625 13.55268921 -12.96713257 12.84735107 C-12.94267509 7.23699678 -11.19276295 4.98584694 -7.375 1.1875 C-4.801671 -0.0991645 -2.87276962 0.01925449 0 0 Z M-2.375 8.1875 C-2.375 8.5175 -2.375 8.8475 -2.375 9.1875 C-0.725 9.1875 0.925 9.1875 2.625 9.1875 C2.625 8.8575 2.625 8.5275 2.625 8.1875 C0.975 8.1875 -0.675 8.1875 -2.375 8.1875 Z M43.625 9.1875 C43.53724395 11.33308827 43.51804781 13.48154421 43.52734375 15.62890625 C43.53056641 16.93408203 43.53378906 18.23925781 43.53710938 19.58398438 C43.54546599 20.9726569 43.55393095 22.36132877 43.5625 23.75 C43.56751334 25.14257656 43.57207653 26.53515481 43.57617188 27.92773438 C43.58800566 31.3476987 43.6044912 34.76757844 43.625 38.1875 C46.02219432 38.86708603 46.02219432 38.86708603 48.625 39.1875 C50.89875955 37.34055957 50.89875955 37.34055957 50.86791992 34.51367188 C50.86381104 33.40572266 50.85970215 32.29777344 50.85546875 31.15625 C50.85353516 29.95355469 50.85160156 28.75085938 50.84960938 27.51171875 C50.83736328 26.24972656 50.82511719 24.98773438 50.8125 23.6875 C50.81185547 22.42550781 50.81121094 21.16351563 50.81054688 19.86328125 C51.10378743 13.84476542 51.10378743 13.84476542 49.625 8.1875 C46.33569596 7.82064303 46.33569596 7.82064303 43.625 9.1875 Z M-3.375 9.1875 C-3.375 10.8375 -3.375 12.4875 -3.375 14.1875 C-3.045 14.1875 -2.715 14.1875 -2.375 14.1875 C-2.375 12.5375 -2.375 10.8875 -2.375 9.1875 C-2.705 9.1875 -3.035 9.1875 -3.375 9.1875 Z M-11.375 18.1875 C-10.375 20.1875 -10.375 20.1875 -10.375 20.1875 Z M-10.375 20.1875 C-11.63449049 21.22156673 -11.63449049 21.22156673 -11.47265625 23.47265625 C-11.46105469 24.38917969 -11.44945312 25.30570313 -11.4375 26.25 C-11.42847656 27.16910156 -11.41945312 28.08820312 -11.41015625 29.03515625 C-11.39855469 29.74542969 -11.38695312 30.45570312 -11.375 31.1875 C-8.735 31.5175 -6.095 31.8475 -3.375 32.1875 C-3.375 34.1675 -3.375 36.1475 -3.375 38.1875 C-1.71885343 38.56968767 -0.05042976 38.90145102 1.625 39.1875 C2.92456335 38.09551858 2.92456335 38.09551858 2.9375 35.4375 C2.31946628 29.00994929 -3.05471965 25.55709459 -7.66796875 21.54296875 C-9.14223334 20.08385836 -9.14223334 20.08385836 -10.375 20.1875 Z " fill="#FDFDFD" transform="translate(187.375,9.8125)"/>
<path d="M0 0 C17 0 17 0 22 3 C25.11957247 6.16725152 25.408143 8.55709985 25.375 12.9375 C25.38273437 13.95714844 25.39046875 14.97679687 25.3984375 16.02734375 C24.95321242 19.34907205 23.89914116 21.27186865 22 24 C22.99 25.32 23.98 26.64 25 28 C25.33 18.76 25.66 9.52 26 0 C29.96 0 33.92 0 38 0 C39.5443347 5.1097335 40.68323516 10.18571953 41.625 15.4375 C41.82609375 16.53481445 41.82609375 16.53481445 42.03125 17.65429688 C42.35724688 19.43563697 42.679065 21.21774098 43 23 C43.33 23 43.66 23 44 23 C44.11593506 22.3387915 44.23187012 21.67758301 44.35131836 20.99633789 C44.87595063 18.0176536 45.40664199 15.04008076 45.9375 12.0625 C46.11990234 11.02158203 46.30230469 9.98066406 46.49023438 8.90820312 C46.66748047 7.91884766 46.84472656 6.92949219 47.02734375 5.91015625 C47.18968506 4.99371338 47.35202637 4.07727051 47.51928711 3.13305664 C48 1 48 1 49 0 C50.83115883 -0.09851171 52.66619933 -0.12972629 54.5 -0.125 C55.5003125 -0.12757812 56.500625 -0.13015625 57.53125 -0.1328125 C60 0 60 0 61 1 C61.0928726 2.41225046 61.11746772 3.82908934 61.11352539 5.24438477 C61.11344986 6.14524307 61.11337433 7.04610138 61.11329651 7.97425842 C61.10813522 8.95341721 61.10297394 9.93257599 61.09765625 10.94140625 C61.0962413 11.93881332 61.09482635 12.9362204 61.09336853 13.96385193 C61.08775114 17.16343124 61.07519571 20.36294169 61.0625 23.5625 C61.05748724 25.72591045 61.05292395 27.88932199 61.04882812 30.05273438 C61.03777606 35.36851629 61.02049979 40.68424646 61 46 C58.03 46 55.06 46 52 46 C50.40726856 42.81453711 50.89858167 39.36800652 50.9375 35.875 C50.958125 33.27625 50.97875 30.6775 51 28 C50.01 33.94 49.02 39.88 48 46 C45.03 46 42.06 46 39 46 C36.65509272 43.65509272 36.5707986 38.00620598 36 35 C35.67 38.63 35.34 42.26 35 46 C28.73 46 22.46 46 16 46 C15.86979167 42.41927083 15.73958333 38.83854167 15.609375 35.2578125 C15.40828125 34.18273438 15.2071875 33.10765625 15 32 C13.68 31.34 12.36 30.68 11 30 C11 34.95 11 39.9 11 45 C10.67 45 10.34 45 10 45 C10.01160156 43.85660156 10.02320313 42.71320312 10.03515625 41.53515625 C10.04453288 40.04427246 10.05363321 38.55338691 10.0625 37.0625 C10.07087891 36.30775391 10.07925781 35.55300781 10.08789062 34.77539062 C10.09652441 32.85005687 10.05224333 30.92464419 10 29 C9.67 28.67 9.34 28.34 9 28 C9 33.94 9 39.88 9 46 C6.03 46 3.06 46 0 46 C0 30.82 0 15.64 0 0 Z M9 8 C9 12.29 9 16.58 9 21 C9.33 21 9.66 21 10 21 C10 17.04 10 13.08 10 9 C11 10 11 10 11.09765625 12.28515625 C11.08605469 13.20167969 11.07445312 14.11820313 11.0625 15.0625 C11.05347656 15.98160156 11.04445313 16.90070312 11.03515625 17.84765625 C11.02355469 18.55792969 11.01195312 19.26820312 11 20 C12.32 20 13.64 20 15 20 C15.02687279 18.18757948 15.04633715 16.37504767 15.0625 14.5625 C15.07410156 13.55316406 15.08570313 12.54382813 15.09765625 11.50390625 C15.28612676 9.05978933 15.28612676 9.05978933 14 8 C12.35 8 10.7 8 9 8 Z M34 21 C35 24 35 24 35 24 Z " fill="#FEFEFE" transform="translate(248,10)"/>
<path d="M0 0 C2.6875 1.625 2.6875 1.625 4.6875 3.625 C5.22375 3.356875 5.76 3.08875 6.3125 2.8125 C7.09625 2.420625 7.88 2.02875 8.6875 1.625 C9.533125 1.08875 10.37875 0.5525 11.25 0 C16.07882206 -1.93152883 20.55114331 -1.62176447 25.6875 -1.375 C25.955625 -0.818125 26.22375 -0.26125 26.5 0.3125 C27.64712338 2.67181834 27.64712338 2.67181834 29.23681641 4.85571289 C30.99329541 8.20874914 31.07484345 10.47385241 31.0859375 14.24609375 C31.09173828 16.14391602 31.09173828 16.14391602 31.09765625 18.08007812 C31.08605469 19.39427734 31.07445312 20.70847656 31.0625 22.0625 C31.07410156 23.37283203 31.08570313 24.68316406 31.09765625 26.03320312 C31.09378906 27.29970703 31.08992188 28.56621094 31.0859375 29.87109375 C31.08255371 31.02279053 31.07916992 32.1744873 31.07568359 33.36108398 C30.52861274 37.9609521 29.06947872 41.36865571 25.625 44.5 C21.27356573 46.16650674 17.28052207 46.43208056 12.6875 45.625 C9.56863422 43.93404867 7.29731146 41.84462291 5.6875 38.625 C4.90375 39.594375 4.12 40.56375 3.3125 41.5625 C1.1185048 44.27612564 -0.11744688 45.48831092 -3.703125 45.8984375 C-12.37247149 46.20636511 -12.37247149 46.20636511 -15.9375 43.25 C-19.88854589 38.88305454 -19.40449601 36.32875247 -19.3125 30.625 C-16.3425 30.625 -13.3725 30.625 -10.3125 30.625 C-9.9825 32.605 -9.6525 34.585 -9.3125 36.625 C-7.6625 36.955 -6.0125 37.285 -4.3125 37.625 C-4.93577882 31.08057241 -6.23261773 28.22047664 -11.25 23.875 C-12.12527344 23.17890625 -13.00054687 22.4828125 -13.90234375 21.765625 C-16.91061366 19.09377425 -18.93668151 16.57041338 -19.7109375 12.5625 C-19.65732874 8.13084287 -19.31132541 5.12362965 -16.3125 1.625 C-10.8325959 -1.98675498 -6.07683483 -2.52245974 0 0 Z M4.6875 5.625 C5.6875 8.625 5.6875 8.625 5.6875 8.625 Z M-8.3125 6.625 C-9.61764736 8.84276622 -9.61764736 8.84276622 -10.3125 11.625 C-8.41560018 15.57260234 -5.92852229 18.11274905 -2.625 20.9375 C-1.81675781 21.63488281 -1.00851563 22.33226562 -0.17578125 23.05078125 C0.74654297 23.83001953 0.74654297 23.83001953 1.6875 24.625 C2.3475 24.295 3.0075 23.965 3.6875 23.625 C3.6875 19.995 3.6875 16.365 3.6875 12.625 C1.3775 12.625 -0.9325 12.625 -3.3125 12.625 C-3.3125 10.975 -3.3125 9.325 -3.3125 7.625 C-4.9625 7.295 -6.6125 6.965 -8.3125 6.625 Z M14.6875 7.625 C14.58746711 9.75853174 14.55668952 11.89537542 14.5546875 14.03125 C14.55339844 15.33191406 14.55210938 16.63257813 14.55078125 17.97265625 C14.55287598 18.65344238 14.5549707 19.33422852 14.55712891 20.03564453 C14.5624776 22.11628515 14.5571832 24.19670989 14.55078125 26.27734375 C14.55207031 27.57800781 14.55335937 28.87867188 14.5546875 30.21875 C14.55581543 31.42208984 14.55694336 32.62542969 14.55810547 33.86523438 C14.37294023 36.53484482 14.37294023 36.53484482 15.6875 37.625 C18.1875 37.79166667 18.1875 37.79166667 20.6875 37.625 C21.94699049 36.59093327 21.94699049 36.59093327 21.78515625 34.33984375 C21.77355469 33.42332031 21.76195312 32.50679687 21.75 31.5625 C21.73646484 30.18384766 21.73646484 30.18384766 21.72265625 28.77734375 C21.71105469 28.06707031 21.69945312 27.35679688 21.6875 26.625 C24.3275 26.625 26.9675 26.625 29.6875 26.625 C29.6875 22.995 29.6875 19.365 29.6875 15.625 C27.0475 15.625 24.4075 15.625 21.6875 15.625 C21.72005208 13.57421875 21.75260417 11.5234375 21.78515625 9.47265625 C21.89311184 7.60767859 21.89311184 7.60767859 20.6875 6.625 C17.39855107 6.21871033 17.39855107 6.21871033 14.6875 7.625 Z M4.6875 12.625 C4.46512123 15.04111533 4.25917661 17.4567717 4.0625 19.875 C3.99804688 20.55691406 3.93359375 21.23882812 3.8671875 21.94140625 C3.54187679 26.12978166 3.74158171 27.73316342 5.6875 31.625 C5.6875 25.355 5.6875 19.085 5.6875 12.625 C5.3575 12.625 5.0275 12.625 4.6875 12.625 Z M2.6875 24.625 C3.6875 26.625 3.6875 26.625 3.6875 26.625 Z M-4.3125 33.625 C-3.3125 35.625 -3.3125 35.625 -3.3125 35.625 Z " fill="#FDFDFD" transform="translate(90.3125,60.375)"/>
<path d="M0 0 C2.99317626 3.62809244 3.31525817 6.88068687 4.0625 11.5 C1.0925 11.5 -1.8775 11.5 -4.9375 11.5 C-5.5975 10.18 -6.2575 8.86 -6.9375 7.5 C-7.9275 7.5 -8.9175 7.5 -9.9375 7.5 C-9.9375 11.40313457 -9.81361052 13.50013396 -7.1953125 16.48828125 C-4.17529511 19.15983509 -1.79284982 21.21488339 2.0625 22.5 C2.41518934 24.1626783 2.74283861 25.83065717 3.0625 27.5 C3.31 28.61375 3.5575 29.7275 3.8125 30.875 C4.11971327 35.32959242 3.2838462 37.64966658 1.0625 41.5 C-2.6849272 45.0203104 -6.58884366 44.87742821 -11.48828125 44.73828125 C-14.51145464 44.44416071 -17.14239722 43.67688538 -19.9375 42.5 C-19.9375 41.51 -19.9375 40.52 -19.9375 39.5 C-20.2675 41.15 -20.5975 42.8 -20.9375 44.5 C-28.1975 44.5 -35.4575 44.5 -42.9375 44.5 C-42.9375 29.32 -42.9375 14.14 -42.9375 -1.5 C-39.3075 -1.5 -35.6775 -1.5 -31.9375 -1.5 C-31.9375 10.38 -31.9375 22.26 -31.9375 34.5 C-28.9675 34.5 -25.9975 34.5 -22.9375 34.5 C-22.6075 33.18 -22.2775 31.86 -21.9375 30.5 C-20.9375 29.5 -20.9375 29.5 -19.08984375 29.40234375 C-17.0390625 29.43489583 -14.98828125 29.46744792 -12.9375 29.5 C-12.6075 31.81 -12.2775 34.12 -11.9375 36.5 C-9.4625 36.005 -9.4625 36.005 -6.9375 35.5 C-6.52917683 32.70524138 -6.52917683 32.70524138 -6.9375 29.5 C-9.01483261 26.83883491 -9.01483261 26.83883491 -11.8125 24.625 C-12.71742188 23.84382813 -13.62234375 23.06265625 -14.5546875 22.2578125 C-16.71223633 20.30211702 -16.71223633 20.30211702 -18.9375 20.5 C-19.081875 19.88125 -19.22625 19.2625 -19.375 18.625 C-19.86902225 16.46741678 -19.86902225 16.46741678 -20.9375 14.5 C-21.45566286 9.70062265 -21.64957367 5.76590874 -19.25 1.5 C-13.36666951 -3.58828583 -6.79749024 -3.47105885 0 0 Z M-10.9375 5.5 C-6.9375 6.5 -6.9375 6.5 -6.9375 6.5 Z M-11.9375 6.5 C-11.9375 8.15 -11.9375 9.8 -11.9375 11.5 C-11.6075 11.5 -11.2775 11.5 -10.9375 11.5 C-10.9375 9.85 -10.9375 8.2 -10.9375 6.5 C-11.2675 6.5 -11.5975 6.5 -11.9375 6.5 Z M-31.9375 35.5 C-31.9375 35.83 -31.9375 36.16 -31.9375 36.5 C-28.9675 36.5 -25.9975 36.5 -22.9375 36.5 C-22.9375 36.17 -22.9375 35.84 -22.9375 35.5 C-25.9075 35.5 -28.8775 35.5 -31.9375 35.5 Z " fill="#FDFDFD" transform="translate(243.9375,61.5)"/>
<path d="M0 0 C3.43499608 1.14499869 3.61663819 1.56975436 5.26171875 4.59765625 C5.65810547 5.31630859 6.05449219 6.03496094 6.46289062 6.77539062 C6.86701172 7.53013672 7.27113281 8.28488281 7.6875 9.0625 C8.10322266 9.82111328 8.51894531 10.57972656 8.94726562 11.36132812 C9.97321082 13.23633141 10.98770244 15.11759343 12 17 C12.66 17 13.32 17 14 17 C14.08378906 17.68578125 14.16757812 18.3715625 14.25390625 19.078125 C15.18538093 22.72599441 16.94193303 25.60654053 18.9375 28.75 C19.29779297 29.33910156 19.65808594 29.92820312 20.02929688 30.53515625 C21.97770471 33.81627157 21.97770471 33.81627157 25 36 C25.5625 38.3125 25.5625 38.3125 26 41 C26.495 42.98 26.495 42.98 27 45 C9.84 45 -7.32 45 -25 45 C-22.1370088 37.84252201 -18.38321642 31.28217852 -14.41796875 24.6796875 C-13.74314453 23.55191895 -13.74314453 23.55191895 -13.0546875 22.40136719 C-12.15644039 20.90578574 -11.25167334 19.41409723 -10.33984375 17.92675781 C-8.16408764 14.30553411 -6.44592299 11.2909571 -6 7 C-5.34 7 -4.68 7 -4 7 C-2.68 4.69 -1.36 2.38 0 0 Z " fill="#02617C" transform="translate(34,9)"/>
<path d="M0 0 C2.97 0 5.94 0 9 0 C9 6.27 9 12.54 9 19 C11.31 19 13.62 19 16 19 C16 12.73 16 6.46 16 0 C19.3 0 22.6 0 26 0 C26 15.18 26 30.36 26 46 C23.03 46 20.06 46 17 46 C16 45 16 45 15.88647461 43.23413086 C15.89171143 42.48526611 15.89694824 41.73640137 15.90234375 40.96484375 C15.90556641 40.15595703 15.90878906 39.34707031 15.91210938 38.51367188 C15.92048828 37.66353516 15.92886719 36.81339844 15.9375 35.9375 C15.94201172 35.08349609 15.94652344 34.22949219 15.95117188 33.34960938 C15.96299627 31.23304337 15.98093231 29.11651315 16 27 C13.69 27 11.38 27 9 27 C9 33.27 9 39.54 9 46 C6.03 46 3.06 46 0 46 C0 30.82 0 15.64 0 0 Z " fill="#FDFDFD" transform="translate(122,60)"/>
<path d="M0 0 C0.66 -0.66 1.32 -1.32 2 -2 C2.09918586 3.30186559 2.17161755 8.60318618 2.21972656 13.90576172 C2.23979033 15.70794081 2.26704813 17.51005521 2.30175781 19.31201172 C2.35050829 21.90869136 2.37302082 24.50450729 2.390625 27.1015625 C2.41127014 27.9017984 2.43191528 28.7020343 2.45318604 29.52651978 C2.45529153 34.82527602 1.49629742 37.78360127 -2 42 C-6.21813542 44.95354351 -11.05757288 44.39187529 -16 44 C-19.0625 43.1875 -19.0625 43.1875 -21 42 C-21.495 40.515 -21.495 40.515 -22 39 C-22.33 38.34 -22.66 37.68 -23 37 C-23.1349498 34.57779073 -23.21254926 32.1855955 -23.23828125 29.76171875 C-23.246353 29.04393753 -23.25442474 28.32615631 -23.26274109 27.58662415 C-23.27657786 26.06599337 -23.28730185 24.54533159 -23.29516602 23.0246582 C-23.31235842 20.70658958 -23.35624181 18.38995531 -23.40039062 16.07226562 C-23.41051977 14.59376047 -23.41903519 13.11524321 -23.42578125 11.63671875 C-23.44328934 10.94696457 -23.46079742 10.25721039 -23.47883606 9.54655457 C-23.45737464 4.75001896 -22.38685492 2.36577248 -19 -1 C-12.39288539 -4.74998397 -6.38869327 -3.12915589 0 0 Z M-14 6 C-14.10003289 8.13353174 -14.13081048 10.27037542 -14.1328125 12.40625 C-14.13410156 13.70691406 -14.13539063 15.00757813 -14.13671875 16.34765625 C-14.13462402 17.02844238 -14.1325293 17.70922852 -14.13037109 18.41064453 C-14.1250224 20.49128515 -14.1303168 22.57170989 -14.13671875 24.65234375 C-14.13542969 25.95300781 -14.13414062 27.25367188 -14.1328125 28.59375 C-14.13168457 29.79708984 -14.13055664 31.00042969 -14.12939453 32.24023438 C-14.31455977 34.90984482 -14.31455977 34.90984482 -13 36 C-11.33382885 36.04063832 -9.66611905 36.042721 -8 36 C-8.33 35.34 -8.66 34.68 -9 34 C-9.01639513 31.82000044 -8.96414776 29.63933158 -8.87890625 27.4609375 C-8.83056641 26.15898438 -8.78222656 24.85703125 -8.73242188 23.515625 C-8.67589606 22.13541196 -8.61925392 20.75520368 -8.5625 19.375 C-8.50927707 17.98699781 -8.45653668 16.59897703 -8.40429688 15.2109375 C-8.27428837 11.80707859 -8.13931117 8.40348883 -8 5 C-11.28930404 4.63314303 -11.28930404 4.63314303 -14 6 Z M-8 7 C-8 15.91 -8 24.82 -8 34 C-7.67 34 -7.34 34 -7 34 C-7 25.09 -7 16.18 -7 7 C-7.33 7 -7.66 7 -8 7 Z " fill="#FDFDFD" transform="translate(198,62)"/>
<path d="M0 0 C3.14971691 2.07594978 4.1330023 3.42756543 5.75 6.8125 C6.31186561 11.37504478 6.2652586 15.93979714 6.25097656 20.53198242 C6.25000407 22.74074665 6.29165908 24.94603352 6.3359375 27.15429688 C6.34114544 28.57030532 6.34383268 29.98632573 6.34375 31.40234375 C6.35083984 32.67972412 6.35792969 33.95710449 6.36523438 35.27319336 C5.55903825 39.91106052 4.04025182 41.50765933 0.75 44.8125 C-3.21283561 46.79391781 -7.94210238 46.37070645 -12.25 45.8125 C-15.42852316 44.16801311 -17.62801764 42.05646473 -19.25 38.8125 C-19.37285662 36.39017707 -19.43832331 33.99767944 -19.453125 31.57421875 C-19.45882507 30.85643753 -19.46452515 30.13865631 -19.47039795 29.39912415 C-19.47984952 27.87848383 -19.48638256 26.35782301 -19.49023438 24.8371582 C-19.49991925 22.51932611 -19.5309308 20.20238875 -19.5625 17.88476562 C-19.56903237 16.40625526 -19.57428192 14.92773855 -19.578125 13.44921875 C-19.5904718 12.75946457 -19.6028186 12.06971039 -19.61553955 11.35905457 C-19.59560893 7.01675345 -18.98023309 4.22769052 -16.25 0.8125 C-10.38228075 -1.14340642 -6.01625513 -2.19824707 0 0 Z M-9.25 6.8125 C-10.31952974 10.02108923 -10.37922738 12.35085228 -10.3828125 15.72265625 C-10.38410156 16.87701172 -10.38539063 18.03136719 -10.38671875 19.22070312 C-10.38285156 20.42662109 -10.37898437 21.63253906 -10.375 22.875 C-10.37886719 24.08478516 -10.38273438 25.29457031 -10.38671875 26.54101562 C-10.38542969 27.69408203 -10.38414062 28.84714844 -10.3828125 30.03515625 C-10.38168457 31.09484619 -10.38055664 32.15453613 -10.37939453 33.24633789 C-10.42274559 35.80167827 -10.42274559 35.80167827 -9.25 37.8125 C-7.58388095 37.855221 -5.91617115 37.85313832 -4.25 37.8125 C-2.42404746 35.98654746 -3.119581 33.1112678 -3.1171875 30.66015625 C-3.11589844 29.40912109 -3.11460937 28.15808594 -3.11328125 26.86914062 C-3.11714844 25.55107422 -3.12101562 24.23300781 -3.125 22.875 C-3.12113281 21.56080078 -3.11726563 20.24660156 -3.11328125 18.89257812 C-3.11457031 17.64025391 -3.11585938 16.38792969 -3.1171875 15.09765625 C-3.11887939 13.36334351 -3.11887939 13.36334351 -3.12060547 11.59399414 C-3.05977363 8.85531369 -3.05977363 8.85531369 -4.25 6.8125 C-5.9 6.8125 -7.55 6.8125 -9.25 6.8125 Z " fill="#FDFDFD" transform="translate(168.25,60.1875)"/>
<path d="M0 0 C0.33 0 0.66 0 1 0 C3.36700595 25.05141993 3.36700595 25.05141993 -0.29492188 31.16015625 C-3.65832635 34.32151876 -7.67067781 35.87480491 -12.00683594 37.29980469 C-15.02213481 38.3590743 -17.68275835 39.95856426 -20.4375 41.5625 C-21.95651678 42.37839111 -23.47657779 43.19236453 -25 44 C-22.25155642 36.82350843 -18.36700249 30.25518088 -14.41796875 23.6796875 C-13.74314453 22.55191895 -13.74314453 22.55191895 -13.0546875 21.40136719 C-12.15644039 19.90578574 -11.25167334 18.41409723 -10.33984375 16.92675781 C-8.16408764 13.30553411 -6.44592299 10.2909571 -6 6 C-5.34 6 -4.68 6 -4 6 C-2.63823419 4.01924973 -1.30406884 2.01920337 0 0 Z " fill="#38ACD7" transform="translate(34,10)"/>
<path d="M0 0 C0.99386719 0.57363281 1.98773438 1.14726563 3.01171875 1.73828125 C3.81101807 2.17132568 4.61031738 2.60437012 5.43383789 3.05053711 C8.28101327 4.60759796 11.08453019 6.22677276 13.88671875 7.86328125 C15.34851562 8.70826172 15.34851562 8.70826172 16.83984375 9.5703125 C19.23333837 10.95478488 21.62380255 12.34421666 24.01171875 13.73828125 C24.01171875 14.06828125 24.01171875 14.39828125 24.01171875 14.73828125 C7.18171875 14.73828125 -9.64828125 14.73828125 -26.98828125 14.73828125 C-23.00686895 10.75686895 -18.51307196 8.25984906 -13.67578125 5.42578125 C-12.73798828 4.85021484 -11.80019531 4.27464844 -10.83398438 3.68164062 C-3.94126719 -0.34518288 -3.94126719 -0.34518288 0 0 Z " fill="#01819E" transform="translate(36.98828125,39.26171875)"/>
<path d="M0 0 C16.5 0 33 0 50 0 C50 0.33 50 0.66 50 1 C33.5 1 17 1 0 1 C0 0.67 0 0.34 0 0 Z " fill="#007F80" transform="translate(10,55)"/>
<path d="M0 0 C1.65 0 3.3 0 5 0 C5 2.64 5 5.28 5 8 C4.67 8 4.34 8 4 8 C4 5.69 4 3.38 4 1 C3.01 1 2.02 1 1 1 C1 10.24 1 19.48 1 29 C0.67 29 0.34 29 0 29 C0 19.43 0 9.86 0 0 Z " fill="#FFFFFF" transform="translate(106,68)"/>
<path d="M0 0 C0.33 0 0.66 0 1 0 C1 12.21 1 24.42 1 37 C0.67 37 0.34 37 0 37 C0 24.79 0 12.58 0 0 Z " fill="#FFFFFF" transform="translate(74,19)"/>
<path d="M0 0 C1.32 0.33 2.64 0.66 4 1 C3.01 1 2.02 1 1 1 C1 9.91 1 18.82 1 28 C1.99 28.33 2.98 28.66 4 29 C2.68 29 1.36 29 0 29 C0 19.43 0 9.86 0 0 Z " fill="#FFFFFF" transform="translate(232,19)"/>
<path d="M0 0 C0.33 0 0.66 0 1 0 C1 9.24 1 18.48 1 28 C0.34 27.67 -0.32 27.34 -1 27 C-0.67 18.09 -0.34 9.18 0 0 Z " fill="#FFFFFF" transform="translate(163,69)"/>
<path d="M0 0 C0.33 0 0.66 0 1 0 C1 8.91 1 17.82 1 27 C0.67 27 0.34 27 0 27 C0 18.09 0 9.18 0 0 Z " fill="#FFFFFF" transform="translate(236,20)"/>
<path d="M0 0 C0.33 0 0.66 0 1 0 C1 8.58 1 17.16 1 26 C0.67 26 0.34 26 0 26 C0 17.42 0 8.84 0 0 Z " fill="#FFFFFF" transform="translate(185,71)"/>
<path d="M0 0 C2.97 0 5.94 0 9 0 C9 0.33 9 0.66 9 1 C6.36 1 3.72 1 1 1 C1 6.28 1 11.56 1 17 C0.67 17 0.34 17 0 17 C0 11.39 0 5.78 0 0 Z " fill="#FFFFFF" transform="translate(210,39)"/>
<path d="M0 0 C6.6 0 13.2 0 20 0 C20 0.33 20 0.66 20 1 C13.4 1 6.8 1 0 1 C0 0.67 0 0.34 0 0 Z " fill="#FFFFFF" transform="translate(202,107)"/>
<path d="M0 0 C5.28 0 10.56 0 16 0 C16 0.33 16 0.66 16 1 C10.39436958 1.82622671 5.57710648 2.06795656 0 1 C0 0.67 0 0.34 0 0 Z " fill="#FFFFFF" transform="translate(158,57)"/>
<path d="M0 0 C0.99 0.495 0.99 0.495 2 1 C1.67 3.64 1.34 6.28 1 9 C3.64 9 6.28 9 9 9 C9 9.33 9 9.66 9 10 C6.03 10 3.06 10 0 10 C0 6.7 0 3.4 0 0 Z " fill="#FFFFFF" transform="translate(210,19)"/>
<path d="M0 0 C0.33 0 0.66 0 1 0 C1 5.94 1 11.88 1 18 C0.67 18 0.34 18 0 18 C0 12.06 0 6.12 0 0 Z " fill="#FFFFFF" transform="translate(132,60)"/>
<path d="M0 0 C0.33 0 0.66 0 1 0 C1 4.95 1 9.9 1 15 C-1.42945561 11.35581659 -1.0828781 10.07076636 -0.625 5.8125 C-0.51414063 4.72582031 -0.40328125 3.63914062 -0.2890625 2.51953125 C-0.19367188 1.68808594 -0.09828125 0.85664063 0 0 Z " fill="#FFFFFF" transform="translate(164,11)"/>
<path d="M0 0 C0.33 0 0.66 0 1 0 C1 5.61 1 11.22 1 17 C0.67 17 0.34 17 0 17 C0 11.39 0 5.78 0 0 Z " fill="#FFFFFF" transform="translate(132,88)"/>
<path d="M0 0 C2.64 0 5.28 0 8 0 C8.33 0.66 8.66 1.32 9 2 C6.36 2 3.72 2 1 2 C0.67 1.34 0.34 0.68 0 0 Z " fill="#FFFFFF" transform="translate(201,57)"/>
<path d="M0 0 C4.62 0 9.24 0 14 0 C14 0.33 14 0.66 14 1 C9.02936879 1.91297308 4.97063121 1.91297308 0 1 C0 0.67 0 0.34 0 0 Z " fill="#FFFFFF" transform="translate(105,57)"/>
<path d="M0 0 C2.31 0 4.62 0 7 0 C7 0.66 7 1.32 7 2 C4.36 2 1.72 2 -1 2 C-0.67 1.34 -0.34 0.68 0 0 Z " fill="#FFFFFF" transform="translate(140,57)"/>
<path d="M0 0 C6.625 -0.25 6.625 -0.25 10 2 C3.9453125 2.1953125 3.9453125 2.1953125 2 2 C1.34 1.34 0.68 0.68 0 0 Z " fill="#FFFFFF" transform="translate(120,57)"/>
<path d="M0 0 C3.3 0 6.6 0 10 0 C10 0.33 10 0.66 10 1 C6.7 1.33 3.4 1.66 0 2 C0 1.34 0 0.68 0 0 Z " fill="#FFFFFF" transform="translate(77,57)"/>
<path d="M0 0 C0.33 0 0.66 0 1 0 C1 3.96 1 7.92 1 12 C0.67 12 0.34 12 0 12 C0 8.04 0 4.08 0 0 Z " fill="#FFFFFF" transform="translate(107,40)"/>
<path d="M0 0 C0.33 0 0.66 0 1 0 C1 3.63 1 7.26 1 11 C0.67 11 0.34 11 0 11 C0 7.37 0 3.74 0 0 Z " fill="#FFFFFF" transform="translate(262,43)"/>
<path d="M0 0 C1.9955516 3.99110319 2.19546065 5.69986566 2 10 C1.67 10 1.34 10 1 10 C0.67 6.7 0.34 3.4 0 0 Z " fill="#FFFFFF" transform="translate(290,23)"/>
<path d="M0 0 C0.66 0 1.32 0 2 0 C2 3.3 2 6.6 2 10 C1.67 10 1.34 10 1 10 C0.67 6.7 0.34 3.4 0 0 Z " fill="#FFFFFF" transform="translate(106,19)"/>
<path d="M0 0 C3.3 0 6.6 0 10 0 C10 0.33 10 0.66 10 1 C6.7 1 3.4 1 0 1 C0 0.67 0 0.34 0 0 Z " fill="#FFFFFF" transform="translate(230,107)"/>
<path d="M0 0 C3.3 0 6.6 0 10 0 C10 0.33 10 0.66 10 1 C6.7 1 3.4 1 0 1 C0 0.67 0 0.34 0 0 Z " fill="#FFFFFF" transform="translate(182,107)"/>
<path d="M0 0 C3.3 0 6.6 0 10 0 C10 0.33 10 0.66 10 1 C6.7 1 3.4 1 0 1 C0 0.67 0 0.34 0 0 Z " fill="#FFFFFF" transform="translate(103,107)"/>
<path d="M0 0 C0.33 0 0.66 0 1 0 C1 2.97 1 5.94 1 9 C0.34 8.67 -0.32 8.34 -1 8 C-0.67 5.36 -0.34 2.72 0 0 Z " fill="#FFFFFF" transform="translate(110,88)"/>
<path d="M0 0 C0.33 0 0.66 0 1 0 C1 3.3 1 6.6 1 10 C0.67 10 0.34 10 0 10 C0 6.7 0 3.4 0 0 Z " fill="#FFFFFF" transform="translate(221,66)"/>
<path d="M0 0 C3.375 -0.125 3.375 -0.125 7 0 C7.66 0.66 8.32 1.32 9 2 C6.03 1.67 3.06 1.34 0 1 C0 0.67 0 0.34 0 0 Z " fill="#FFFFFF" transform="translate(149,57)"/>
<path d="M0 0 C2.97 0 5.94 0 9 0 C9 0.33 9 0.66 9 1 C6.03 1 3.06 1 0 1 C0 0.67 0 0.34 0 0 Z " fill="#FFFFFF" transform="translate(157,107)"/>
<path d="M0 0 C2.97 0 5.94 0 9 0 C9 0.33 9 0.66 9 1 C6.03 1 3.06 1 0 1 C0 0.67 0 0.34 0 0 Z " fill="#FFFFFF" transform="translate(79,107)"/>
<path d="M0 0 C0.33 0 0.66 0 1 0 C1 1.98 1 3.96 1 6 C-0.32 5.67 -1.64 5.34 -3 5 C-2.01 5 -1.02 5 0 5 C0 3.35 0 1.7 0 0 Z " fill="#FFFFFF" transform="translate(188,42)"/>
<path d="M0 0 C2.64 0 5.28 0 8 0 C8 0.33 8 0.66 8 1 C5.36 1 2.72 1 0 1 C0 0.67 0 0.34 0 0 Z " fill="#FFFFFF" transform="translate(139,107)"/>
<path d="M0 0 C2.64 0 5.28 0 8 0 C8 0.33 8 0.66 8 1 C5.36 1 2.72 1 0 1 C0 0.67 0 0.34 0 0 Z " fill="#FFFFFF" transform="translate(122,107)"/>
<path d="M0 0 C1.32 0 2.64 0 4 0 C4 1.65 4 3.3 4 5 C3.896875 4.360625 3.79375 3.72125 3.6875 3.0625 C3.460625 2.381875 3.23375 1.70125 3 1 C2.01 0.67 1.02 0.34 0 0 Z " fill="#FFFFFF" transform="translate(82,68)"/>
<path d="M0 0 C2.64 0 5.28 0 8 0 C8 0.33 8 0.66 8 1 C5.36 1 2.72 1 0 1 C0 0.67 0 0.34 0 0 Z " fill="#FFFFFF" transform="translate(287,57)"/>
<path d="M0 0 C2.64 0 5.28 0 8 0 C8 0.33 8 0.66 8 1 C5.36 1 2.72 1 0 1 C0 0.67 0 0.34 0 0 Z " fill="#FFFFFF" transform="translate(265,57)"/>
<path d="M0 0 C2.64 0 5.28 0 8 0 C8 0.33 8 0.66 8 1 C5.36 1 2.72 1 0 1 C0 0.67 0 0.34 0 0 Z " fill="#FFFFFF" transform="translate(249,57)"/>
<path d="M0 0 C0.33 0 0.66 0 1 0 C1 2.64 1 5.28 1 8 C0.67 8 0.34 8 0 8 C0 5.36 0 2.72 0 0 Z " fill="#FFFFFF" transform="translate(120,19)"/>
<path d="M0 0 C0.33 1.32 0.66 2.64 1 4 C0.01 3.01 -0.98 2.02 -2 1 C-1.34 0.67 -0.68 0.34 0 0 Z " fill="#FFFFFF" transform="translate(120,61)"/>
<path d="M0 0 C2.31 0 4.62 0 7 0 C7 0.33 7 0.66 7 1 C4.69 1 2.38 1 0 1 C0 0.67 0 0.34 0 0 Z " fill="#FFFFFF" transform="translate(301,57)"/>
<path d="M0 0 C2.31 0 4.62 0 7 0 C7 0.33 7 0.66 7 1 C4.69 1 2.38 1 0 1 C0 0.67 0 0.34 0 0 Z " fill="#FFFFFF" transform="translate(275,57)"/>
<path d="M0 0 C2.31 0 4.62 0 7 0 C7 0.33 7 0.66 7 1 C4.69 1 2.38 1 0 1 C0 0.67 0 0.34 0 0 Z " fill="#FFFFFF" transform="translate(95,57)"/>
<path d="M0 0 C0.33 0 0.66 0 1 0 C1 1.65 1 3.3 1 5 C0.34 4.01 -0.32 3.02 -1 2 C-0.67 1.34 -0.34 0.68 0 0 Z " fill="#FFFFFF" transform="translate(199,100)"/>
<path d="M0 0 C0.33 0 0.66 0 1 0 C1 1.65 1 3.3 1 5 C0.34 4.01 -0.32 3.02 -1 2 C-0.67 1.34 -0.34 0.68 0 0 Z " fill="#FFFFFF" transform="translate(120,100)"/>
<path d="M0 0 C0.33 0 0.66 0 1 0 C1 1.98 1 3.96 1 6 C0.67 6 0.34 6 0 6 C0 4.02 0 2.04 0 0 Z " fill="#FFFFFF" transform="translate(69,92)"/>
<path d="M0 0 C0.33 0 0.66 0 1 0 C1 1.98 1 3.96 1 6 C0.67 6 0.34 6 0 6 C0 4.02 0 2.04 0 0 Z " fill="#FFFFFF" transform="translate(236,91)"/>
<path d="M0 0 C0.33 0 0.66 0 1 0 C1 1.98 1 3.96 1 6 C0.67 6 0.34 6 0 6 C0 4.02 0 2.04 0 0 Z " fill="#FFFFFF" transform="translate(69,68)"/>
<path d="M0 0 C0.33 0 0.66 0 1 0 C1 1.65 1 3.3 1 5 C0.34 4.01 -0.32 3.02 -1 2 C-0.67 1.34 -0.34 0.68 0 0 Z " fill="#FFFFFF" transform="translate(246,51)"/>
<path d="M0 0 C0.33 0 0.66 0 1 0 C1 1.98 1 3.96 1 6 C0.67 6 0.34 6 0 6 C0 4.02 0 2.04 0 0 Z " fill="#FFFFFF" transform="translate(133,29)"/>
<path d="M0 0 C0.33 0 0.66 0 1 0 C1 1.98 1 3.96 1 6 C0.67 6 0.34 6 0 6 C0 4.02 0 2.04 0 0 Z " fill="#FFFFFF" transform="translate(144,23)"/>
<path d="M0 0 C0.33 0 0.66 0 1 0 C1 1.98 1 3.96 1 6 C0.67 6 0.34 6 0 6 C0 4.02 0 2.04 0 0 Z " fill="#FFFFFF" transform="translate(293,16)"/>
<path d="M0 0 C0.33 0 0.66 0 1 0 C1 1.65 1 3.3 1 5 C0.34 4.01 -0.32 3.02 -1 2 C-0.67 1.34 -0.34 0.68 0 0 Z " fill="#FFFFFF" transform="translate(246,11)"/>
<path d="M0 0 C0.99 0.99 1.98 1.98 3 3 C2.01 2.67 1.02 2.34 0 2 C0 1.34 0 0.68 0 0 Z " fill="#FFFFFF" transform="translate(74,81)"/>
<path d="M0 0 C1.65 0 3.3 0 5 0 C5 0.33 5 0.66 5 1 C3.35 1 1.7 1 0 1 C0 0.67 0 0.34 0 0 Z " fill="#FFFFFF" transform="translate(113,77)"/>
<path d="M0 0 C1.32 0.33 2.64 0.66 4 1 C2.68 1.33 1.36 1.66 0 2 C0 1.34 0 0.68 0 0 Z " fill="#FFFFFF" transform="translate(185,68)"/>
<path d="M0 0 C0.66 0.66 1.32 1.32 2 2 C1.34 2.66 0.68 3.32 0 4 C0 2.68 0 1.36 0 0 Z " fill="#FFFFFF" transform="translate(175,52)"/>
<path d="M0 0 C0.33 0 0.66 0 1 0 C1 1.65 1 3.3 1 5 C0.67 5 0.34 5 0 5 C0 3.35 0 1.7 0 0 Z " fill="#FFFFFF" transform="translate(284,48)"/>
<path d="M0 0 C0.33 0 0.66 0 1 0 C1 1.65 1 3.3 1 5 C0.67 5 0.34 5 0 5 C0 3.35 0 1.7 0 0 Z " fill="#FFFFFF" transform="translate(121,33)"/>
<path d="M0 0 C0.33 0 0.66 0 1 0 C1 1.65 1 3.3 1 5 C0.67 5 0.34 5 0 5 C0 3.35 0 1.7 0 0 Z " fill="#FFFFFF" transform="translate(292,22)"/>
<path d="M0 0 C1.65 0 3.3 0 5 0 C5 0.33 5 0.66 5 1 C3.35 1 1.7 1 0 1 C0 0.67 0 0.34 0 0 Z " fill="#FFFFFF" transform="translate(213,19)"/>
<path d="M0 0 C0.33 0 0.66 0 1 0 C1 1.65 1 3.3 1 5 C0.67 5 0.34 5 0 5 C0 3.35 0 1.7 0 0 Z " fill="#FFFFFF" transform="translate(143,18)"/>
<path d="M0 0 C0.33 0 0.66 0 1 0 C1 1.65 1 3.3 1 5 C0.67 5 0.34 5 0 5 C0 3.35 0 1.7 0 0 Z " fill="#FFFFFF" transform="translate(142,13)"/>
<path d="M0 0 C0.99 1.485 0.99 1.485 2 3 C1.01 3.495 1.01 3.495 0 4 C0 2.68 0 1.36 0 0 Z " fill="#FFFFFF" transform="translate(175,11)"/>
<path d="M0 0 C0.33 0 0.66 0 1 0 C1 1.65 1 3.3 1 5 C0.67 5 0.34 5 0 5 C0 3.35 0 1.7 0 0 Z " fill="#FFFFFF" transform="translate(66,12)"/>
<path d="M0 0 C1 4 1 4 1 4 Z " fill="#FFFFFF" transform="translate(232,92)"/>
<path d="M0 0 C1 4 1 4 1 4 Z " fill="#FFFFFF" transform="translate(198,52)"/>
<path d="M0 0 C1 4 1 4 1 4 Z " fill="#FFFFFF" transform="translate(129,52)"/>
<path d="M0 0 C1 4 1 4 1 4 Z " fill="#FFFFFF" transform="translate(298,46)"/>
<path d="M0 0 C1 4 1 4 1 4 Z " fill="#FFFFFF" transform="translate(122,28)"/>
<path d="M0 0 C0.99 0.495 0.99 0.495 2 1 C1.67 1.66 1.34 2.32 1 3 C0.67 2.01 0.34 1.02 0 0 Z " fill="#FFFFFF" transform="translate(186,24)"/>
<path d="M0 0 C1 4 1 4 1 4 Z " fill="#FFFFFF" transform="translate(289,18)"/>
<path d="M0 0 C1 4 1 4 1 4 Z " fill="#FFFFFF" transform="translate(294,12)"/>
<path d="M0 0 C4 1 4 1 4 1 Z " fill="#FFFFFF" transform="translate(233,8)"/>
<path d="M0 0 C4 1 4 1 4 1 Z " fill="#FFFFFF" transform="translate(186,8)"/>
<path d="M0 0 C0.66 0.66 1.32 1.32 2 2 C1.34 2 0.68 2 0 2 C0 1.34 0 0.68 0 0 Z " fill="#FFFFFF" transform="translate(95,100)"/>
<path d="" fill="#FFFFFF" transform="translate(0,0)"/>
<path d="" fill="#FFFFFF" transform="translate(0,0)"/>
<path d="M0 0 C0.66 0 1.32 0 2 0 C1.67 0.66 1.34 1.32 1 2 C0.67 1.34 0.34 0.68 0 0 Z " fill="#FFFFFF" transform="translate(82,89)"/>
<path d="" fill="#FFFFFF" transform="translate(0,0)"/>
<path d="M0 0 C3 1 3 1 3 1 Z " fill="#FFFFFF" transform="translate(160,68)"/>
<path d="" fill="#FFFFFF" transform="translate(0,0)"/>
<path d="M0 0 C3 1 3 1 3 1 Z " fill="#FFFFFF" transform="translate(102,58)"/>
<path d="M0 0 C3 1 3 1 3 1 Z " fill="#FFFFFF" transform="translate(87,58)"/>
<path d="" fill="#FFFFFF" transform="translate(0,0)"/>
<path d="" fill="#FFFFFF" transform="translate(0,0)"/>
<path d="" fill="#FFFFFF" transform="translate(0,0)"/>
<path d="" fill="#FFFFFF" transform="translate(0,0)"/>
<path d="" fill="#FFFFFF" transform="translate(0,0)"/>
<path d="M0 0 C0.99 0.495 0.99 0.495 2 1 C1.01 1.495 1.01 1.495 0 2 C0 1.34 0 0.68 0 0 Z " fill="#FFFFFF" transform="translate(219,19)"/>
<path d="M0 0 C3 1 3 1 3 1 Z " fill="#FFFFFF" transform="translate(70,19)"/>
<path d="" fill="#FFFFFF" transform="translate(0,0)"/>
<path d="" fill="#FFFFFF" transform="translate(0,0)"/>
<path d="M0 0 C0.99 0.495 0.99 0.495 2 1 C1.01 1.495 1.01 1.495 0 2 C0 1.34 0 0.68 0 0 Z " fill="#FFFFFF" transform="translate(223,11)"/>
<path d="M0 0 C2 1 2 1 2 1 Z " fill="#FFFFFF" transform="translate(240,106)"/>
<path d="M0 0 C2 1 2 1 2 1 Z " fill="#FFFFFF" transform="translate(228,106)"/>
<path d="M0 0 C2 1 2 1 2 1 Z " fill="#FFFFFF" transform="translate(180,106)"/>
<path d="M0 0 C2 1 2 1 2 1 Z " fill="#FFFFFF" transform="translate(167,106)"/>
<path d="M0 0 C2 1 2 1 2 1 Z " fill="#FFFFFF" transform="translate(154,106)"/>
<path d="M0 0 C2 1 2 1 2 1 Z " fill="#FFFFFF" transform="translate(113,106)"/>
<path d="M0 0 C2 1 2 1 2 1 Z " fill="#FFFFFF" transform="translate(101,106)"/>
<path d="M0 0 C2 1 2 1 2 1 Z " fill="#FFFFFF" transform="translate(89,106)"/>
<path d="M0 0 C2 1 2 1 2 1 Z " fill="#FFFFFF" transform="translate(76,106)"/>
<path d="M0 0 C2 1 2 1 2 1 Z " fill="#FFFFFF" transform="translate(242,105)"/>
<path d="M0 0 C2 1 2 1 2 1 Z " fill="#FFFFFF" transform="translate(226,105)"/>
<path d="M0 0 C2 1 2 1 2 1 Z " fill="#FFFFFF" transform="translate(115,105)"/>
<path d="" fill="#FFFFFF" transform="translate(0,0)"/>
<path d="" fill="#FFFFFF" transform="translate(0,0)"/>
<path d="" fill="#FFFFFF" transform="translate(0,0)"/>
<path d="" fill="#FFFFFF" transform="translate(0,0)"/>
<path d="" fill="#FFFFFF" transform="translate(0,0)"/>
<path d="M0 0 C2 1 2 1 2 1 Z " fill="#FFFFFF" transform="translate(72,89)"/>
<path d="" fill="#FFFFFF" transform="translate(0,0)"/>
<path d="M0 0 C2 1 2 1 2 1 Z " fill="#FFFFFF" transform="translate(238,78)"/>
<path d="" fill="#FFFFFF" transform="translate(0,0)"/>
<path d="" fill="#FFFFFF" transform="translate(0,0)"/>
<path d="" fill="#FFFFFF" transform="translate(0,0)"/>
<path d="" fill="#FFFFFF" transform="translate(0,0)"/>
<path d="" fill="#FFFFFF" transform="translate(0,0)"/>
<path d="" fill="#FFFFFF" transform="translate(0,0)"/>
<path d="" fill="#FFFFFF" transform="translate(0,0)"/>
<path d="" fill="#FFFFFF" transform="translate(0,0)"/>
<path d="" fill="#FFFFFF" transform="translate(0,0)"/>
<path d="M0 0 C2 1 2 1 2 1 Z " fill="#FFFFFF" transform="translate(195,60)"/>
<path d="M0 0 C2 1 2 1 2 1 Z " fill="#FFFFFF" transform="translate(91,60)"/>
<path d="M0 0 C2 1 2 1 2 1 Z " fill="#FFFFFF" transform="translate(74,60)"/>
<path d="M0 0 C2 1 2 1 2 1 Z " fill="#FFFFFF" transform="translate(241,59)"/>
<path d="M0 0 C2 1 2 1 2 1 Z " fill="#FFFFFF" transform="translate(227,59)"/>
<path d="M0 0 C2 1 2 1 2 1 Z " fill="#FFFFFF" transform="translate(179,59)"/>
<path d="M0 0 C2 1 2 1 2 1 Z " fill="#FFFFFF" transform="translate(168,59)"/>
<path d="M0 0 C2 1 2 1 2 1 Z " fill="#FFFFFF" transform="translate(100,59)"/>
<path d="M0 0 C2 1 2 1 2 1 Z " fill="#FFFFFF" transform="translate(193,56)"/>
<path d="" fill="#FFFFFF" transform="translate(0,0)"/>
<path d="" fill="#007FBF" transform="translate(0,0)"/>
<path d="" fill="#FFFFFF" transform="translate(0,0)"/>
<path d="" fill="#007F7F" transform="translate(0,0)"/>
<path d="" fill="#007FFF" transform="translate(0,0)"/>
<path d="" fill="#3FBFBF" transform="translate(0,0)"/>
<path d="" fill="#007F7F" transform="translate(0,0)"/>
<path d="" fill="#3FBFBF" transform="translate(0,0)"/>
<path d="" fill="#006A7F" transform="translate(0,0)"/>
<path d="" fill="#1594E9" transform="translate(0,0)"/>
<path d="" fill="#007F7F" transform="translate(0,0)"/>
<path d="" fill="#FFFFFF" transform="translate(0,0)"/>
<path d="" fill="#007F7F" transform="translate(0,0)"/>
<path d="M0 0 C2 1 2 1 2 1 Z " fill="#FFFFFF" transform="translate(189,28)"/>
<path d="" fill="#FFFFFF" transform="translate(0,0)"/>
<path d="" fill="#3FBFBF" transform="translate(0,0)"/>
<path d="M0 0 C2 1 2 1 2 1 Z " fill="#FFFFFF" transform="translate(91,19)"/>
<path d="" fill="#FFFFFF" transform="translate(0,0)"/>
<path d="" fill="#007F7F" transform="translate(0,0)"/>
<path d="" fill="#FFFFFF" transform="translate(0,0)"/>
<path d="" fill="#1F8FEF" transform="translate(0,0)"/>
<path d="" fill="#FFFFFF" transform="translate(0,0)"/>
<path d="" fill="#007F7F" transform="translate(0,0)"/>
<path d="" fill="#FFFFFF" transform="translate(0,0)"/>
<path d="" fill="#006F7F" transform="translate(0,0)"/>
<path d="" fill="#FFFFFF" transform="translate(0,0)"/>
<path d="" fill="#FFFFFF" transform="translate(0,0)"/>
<path d="" fill="#FFFFFF" transform="translate(0,0)"/>
<path d="" fill="#FFFFFF" transform="translate(0,0)"/>
<path d="" fill="#FFFFFF" transform="translate(0,0)"/>
<path d="" fill="#FFFFFF" transform="translate(0,0)"/>
<path d="" fill="#FFFFFF" transform="translate(0,0)"/>
<path d="" fill="#FFFFFF" transform="translate(0,0)"/>
<path d="" fill="#FFFFFF" transform="translate(0,0)"/>
<path d="" fill="#FFFFFF" transform="translate(0,0)"/>
<path d="" fill="#FFFFFF" transform="translate(0,0)"/>
<path d="" fill="#FFFFFF" transform="translate(0,0)"/>
<path d="" fill="#FFFFFF" transform="translate(0,0)"/>
<path d="" fill="#FFFFFF" transform="translate(0,0)"/>
<path d="" fill="#FFFFFF" transform="translate(0,0)"/>
<path d="" fill="#FFFFFF" transform="translate(0,0)"/>
<path d="" fill="#FFFFFF" transform="translate(0,0)"/>
<path d="" fill="#FFFFFF" transform="translate(0,0)"/>
<path d="" fill="#FFFFFF" transform="translate(0,0)"/>
<path d="" fill="#FFFFFF" transform="translate(0,0)"/>
<path d="" fill="#FFFFFF" transform="translate(0,0)"/>
<path d="" fill="#FFFFFF" transform="translate(0,0)"/>
<path d="" fill="#FFFFFF" transform="translate(0,0)"/>
<path d="" fill="#FFFFFF" transform="translate(0,0)"/>
<path d="" fill="#FFFFFF" transform="translate(0,0)"/>
<path d="" fill="#FFFFFF" transform="translate(0,0)"/>
<path d="" fill="#FFFFFF" transform="translate(0,0)"/>
<path d="" fill="#FFFFFF" transform="translate(0,0)"/>
<path d="" fill="#FFFFFF" transform="translate(0,0)"/>
<path d="" fill="#FFFFFF" transform="translate(0,0)"/>
<path d="" fill="#FFFFFF" transform="translate(0,0)"/>
<path d="" fill="#FFFFFF" transform="translate(0,0)"/>
<path d="" fill="#FFFFFF" transform="translate(0,0)"/>
<path d="" fill="#FFFFFF" transform="translate(0,0)"/>
<path d="" fill="#FFFFFF" transform="translate(0,0)"/>
<path d="" fill="#FFFFFF" transform="translate(0,0)"/>
<path d="" fill="#FFFFFF" transform="translate(0,0)"/>
<path d="" fill="#FFFFFF" transform="translate(0,0)"/>
<path d="" fill="#FFFFFF" transform="translate(0,0)"/>
<path d="" fill="#FFFFFF" transform="translate(0,0)"/>
<path d="" fill="#FFFFFF" transform="translate(0,0)"/>
<path d="" fill="#FFFFFF" transform="translate(0,0)"/>
<path d="" fill="#FFFFFF" transform="translate(0,0)"/>
<path d="" fill="#FFFFFF" transform="translate(0,0)"/>
<path d="" fill="#FFFFFF" transform="translate(0,0)"/>
<path d="" fill="#FFFFFF" transform="translate(0,0)"/>
<path d="" fill="#FFFFFF" transform="translate(0,0)"/>
<path d="" fill="#FFFFFF" transform="translate(0,0)"/>
<path d="" fill="#FFFFFF" transform="translate(0,0)"/>
<path d="" fill="#FFFFFF" transform="translate(0,0)"/>
<path d="" fill="#FFFFFF" transform="translate(0,0)"/>
<path d="" fill="#FFFFFF" transform="translate(0,0)"/>
<path d="" fill="#FFFFFF" transform="translate(0,0)"/>
<path d="" fill="#FFFFFF" transform="translate(0,0)"/>
<path d="" fill="#FFFFFF" transform="translate(0,0)"/>
<path d="" fill="#FFFFFF" transform="translate(0,0)"/>
<path d="" fill="#FFFFFF" transform="translate(0,0)"/>
<path d="" fill="#FFFFFF" transform="translate(0,0)"/>
<path d="" fill="#FFFFFF" transform="translate(0,0)"/>
<path d="" fill="#FFFFFF" transform="translate(0,0)"/>
<path d="" fill="#FFFFFF" transform="translate(0,0)"/>
<path d="" fill="#FFFFFF" transform="translate(0,0)"/>
<path d="" fill="#FFFFFF" transform="translate(0,0)"/>
<path d="" fill="#FFFFFF" transform="translate(0,0)"/>
<path d="" fill="#FFFFFF" transform="translate(0,0)"/>
<path d="" fill="#FFFFFF" transform="translate(0,0)"/>
<path d="" fill="#FFFFFF" transform="translate(0,0)"/>
<path d="" fill="#FFFFFF" transform="translate(0,0)"/>
<path d="" fill="#FFFFFF" transform="translate(0,0)"/>
<path d="" fill="#FFFFFF" transform="translate(0,0)"/>
<path d="" fill="#FFFFFF" transform="translate(0,0)"/>
<path d="" fill="#FFFFFF" transform="translate(0,0)"/>
<path d="" fill="#FFFFFF" transform="translate(0,0)"/>
<path d="" fill="#FFFFFF" transform="translate(0,0)"/>
<path d="" fill="#FFFFFF" transform="translate(0,0)"/>
<path d="" fill="#FFFFFF" transform="translate(0,0)"/>
<path d="" fill="#FFFFFF" transform="translate(0,0)"/>
<path d="" fill="#FFFFFF" transform="translate(0,0)"/>
<path d="" fill="#FFFFFF" transform="translate(0,0)"/>
<path d="" fill="#FFFFFF" transform="translate(0,0)"/>
<path d="" fill="#FFFFFF" transform="translate(0,0)"/>
<path d="" fill="#FFFFFF" transform="translate(0,0)"/>
<path d="" fill="#FFFFFF" transform="translate(0,0)"/>
<path d="" fill="#FFFFFF" transform="translate(0,0)"/>
<path d="" fill="#FFFFFF" transform="translate(0,0)"/>
<path d="" fill="#FFFFFF" transform="translate(0,0)"/>
<path d="" fill="#FFFFFF" transform="translate(0,0)"/>
<path d="" fill="#FFFFFF" transform="translate(0,0)"/>
<path d="" fill="#FFFFFF" transform="translate(0,0)"/>
<path d="" fill="#FFFFFF" transform="translate(0,0)"/>
<path d="" fill="#FFFFFF" transform="translate(0,0)"/>
<path d="" fill="#FFFFFF" transform="translate(0,0)"/>
<path d="" fill="#FFFFFF" transform="translate(0,0)"/>
<path d="" fill="#FFFFFF" transform="translate(0,0)"/>
<path d="" fill="#FFFFFF" transform="translate(0,0)"/>
<path d="" fill="#FFFFFF" transform="translate(0,0)"/>
<path d="" fill="#FFFFFF" transform="translate(0,0)"/>
<path d="" fill="#FFFFFF" transform="translate(0,0)"/>
<path d="" fill="#FFFFFF" transform="translate(0,0)"/>
<path d="" fill="#FFFFFF" transform="translate(0,0)"/>
<path d="" fill="#FFFFFF" transform="translate(0,0)"/>
<path d="" fill="#FFFFFF" transform="translate(0,0)"/>
<path d="" fill="#FFFFFF" transform="translate(0,0)"/>
<path d="" fill="#FFFFFF" transform="translate(0,0)"/>
<path d="" fill="#FFFFFF" transform="translate(0,0)"/>
<path d="" fill="#FFFFFF" transform="translate(0,0)"/>
<path d="" fill="#FFFFFF" transform="translate(0,0)"/>
<path d="" fill="#FFFFFF" transform="translate(0,0)"/>
<path d="" fill="#FFFFFF" transform="translate(0,0)"/>
<path d="" fill="#FFFFFF" transform="translate(0,0)"/>
<path d="" fill="#FFFFFF" transform="translate(0,0)"/>
<path d="" fill="#FFFFFF" transform="translate(0,0)"/>
<path d="" fill="#FFFFFF" transform="translate(0,0)"/>
<path d="" fill="#FFFFFF" transform="translate(0,0)"/>
<path d="" fill="#FFFFFF" transform="translate(0,0)"/>
<path d="" fill="#FFFFFF" transform="translate(0,0)"/>
<path d="" fill="#007F7F" transform="translate(0,0)"/>
<path d="" fill="#007FFF" transform="translate(0,0)"/>
<path d="" fill="#FFFFFF" transform="translate(0,0)"/>
<path d="" fill="#007F7F" transform="translate(0,0)"/>
<path d="" fill="#007FFF" transform="translate(0,0)"/>
<path d="" fill="#007F7F" transform="translate(0,0)"/>
<path d="" fill="#007FFF" transform="translate(0,0)"/>
<path d="" fill="#3FBFBF" transform="translate(0,0)"/>
<path d="" fill="#FFFFFF" transform="translate(0,0)"/>
<path d="" fill="#FFFFFF" transform="translate(0,0)"/>
<path d="" fill="#007F7F" transform="translate(0,0)"/>
<path d="" fill="#3FBFBF" transform="translate(0,0)"/>
<path d="" fill="#FFFFFF" transform="translate(0,0)"/>
<path d="" fill="#FFFFFF" transform="translate(0,0)"/>
<path d="" fill="#007F7F" transform="translate(0,0)"/>
<path d="" fill="#FFFFFF" transform="translate(0,0)"/>
<path d="" fill="#3F9FDF" transform="translate(0,0)"/>
<path d="" fill="#FFFFFF" transform="translate(0,0)"/>
<path d="" fill="#FFFFFF" transform="translate(0,0)"/>
<path d="" fill="#FFFFFF" transform="translate(0,0)"/>
<path d="" fill="#FFFFFF" transform="translate(0,0)"/>
<path d="" fill="#FFFFFF" transform="translate(0,0)"/>
<path d="" fill="#FFFFFF" transform="translate(0,0)"/>
<path d="" fill="#FFFFFF" transform="translate(0,0)"/>
<path d="" fill="#FFFFFF" transform="translate(0,0)"/>
<path d="" fill="#FFFFFF" transform="translate(0,0)"/>
<path d="" fill="#FFFFFF" transform="translate(0,0)"/>
<path d="" fill="#FFFFFF" transform="translate(0,0)"/>
<path d="" fill="#FFFFFF" transform="translate(0,0)"/>
<path d="" fill="#005F7F" transform="translate(0,0)"/>
<path d="" fill="#FFFFFF" transform="translate(0,0)"/>
<path d="" fill="#FFFFFF" transform="translate(0,0)"/>
<path d="" fill="#FFFFFF" transform="translate(0,0)"/>
<path d="" fill="#FFFFFF" transform="translate(0,0)"/>
<path d="" fill="#3FBFBF" transform="translate(0,0)"/>
<path d="" fill="#FFFFFF" transform="translate(0,0)"/>
<path d="" fill="#FFFFFF" transform="translate(0,0)"/>
<path d="" fill="#FFFFFF" transform="translate(0,0)"/>
<path d="" fill="#FFFFFF" transform="translate(0,0)"/>
<path d="" fill="#7FFFFF" transform="translate(0,0)"/>
<path d="" fill="#FFFFFF" transform="translate(0,0)"/>
<path d="" fill="#FFFFFF" transform="translate(0,0)"/>
<path d="" fill="#FFFFFF" transform="translate(0,0)"/>
<path d="" fill="#007F7F" transform="translate(0,0)"/>
<path d="" fill="#FFFFFF" transform="translate(0,0)"/>
<path d="" fill="#007FFF" transform="translate(0,0)"/>
<path d="" fill="#3FBFBF" transform="translate(0,0)"/>
<path d="" fill="#3FBFBF" transform="translate(0,0)"/>
<path d="" fill="#FFFFFF" transform="translate(0,0)"/>
<path d="" fill="#FFFFFF" transform="translate(0,0)"/>
<path d="" fill="#007F7F" transform="translate(0,0)"/>
<path d="" fill="#FFFFFF" transform="translate(0,0)"/>
<path d="" fill="#007F7F" transform="translate(0,0)"/>
<path d="" fill="#FFFFFF" transform="translate(0,0)"/>
<path d="" fill="#005F7F" transform="translate(0,0)"/>
<path d="" fill="#FFFFFF" transform="translate(0,0)"/>
<path d="" fill="#3FBFBF" transform="translate(0,0)"/>
<path d="" fill="#FFFFFF" transform="translate(0,0)"/>
<path d="" fill="#FFFFFF" transform="translate(0,0)"/>
<path d="" fill="#FFFFFF" transform="translate(0,0)"/>
<path d="" fill="#FFFFFF" transform="translate(0,0)"/>
<path d="" fill="#FFFFFF" transform="translate(0,0)"/>
<path d="" fill="#3FBFBF" transform="translate(0,0)"/>
<path d="" fill="#FFFFFF" transform="translate(0,0)"/>
<path d="" fill="#FFFFFF" transform="translate(0,0)"/>
<path d="" fill="#FFFFFF" transform="translate(0,0)"/>
<path d="" fill="#FFFFFF" transform="translate(0,0)"/>
<path d="" fill="#007F7F" transform="translate(0,0)"/>
<path d="" fill="#3F7FBF" transform="translate(0,0)"/>
</svg>
